<svg id="brandDesignSVG" data-name="brandDesignSVG" xmlns="http://www.w3.org/2000/svg" viewBox="0 0 63.76 77.21">
  <path d="M88.67,34.61a1.27,1.27,0,0,1,0,2.54H81.55a1.27,1.27,0,0,1,0-2.54Z" transform="translate(-26.17 -4)"></path>
  <path d="M85.66,19.94a1.27,1.27,0,0,1-.46,1.74L79,25.23a1.22,1.22,0,0,1-.63.17A1.27,1.27,0,0,1,77.77,23l6.16-3.55A1.25,1.25,0,0,1,85.66,19.94Z" transform="translate(-26.17 -4)"></path>
  <path d="M85.2,50.09a1.27,1.27,0,0,1-.64,2.37,1.32,1.32,0,0,1-.63-.17l-6.16-3.56A1.27,1.27,0,0,1,79,46.53Z" transform="translate(-26.17 -4)"></path>
  <path d="M77.87,35.66a19.61,19.61,0,0,1-4,12A32.52,32.52,0,0,0,67.1,67.38V75a6.18,6.18,0,0,1-6.17,6.17H55.2A6.17,6.17,0,0,1,49,75V67.38a32.79,32.79,0,0,0-6.76-19.73,19.82,19.82,0,1,1,35.59-12Zm-6,10.42a17.27,17.27,0,0,0-14-27.69,17.36,17.36,0,0,0-17,17.11A17.12,17.12,0,0,0,44.3,46.11,35.37,35.37,0,0,1,51.57,66.9h13A35.12,35.12,0,0,1,71.83,46.08ZM64.56,75v-.4l-13-1.49v1L64.5,75.66A3.18,3.18,0,0,0,64.56,75Zm0-3V69.44h-13V70.6ZM63,78,52,76.79a3.62,3.62,0,0,0,3.17,1.88h5.73A3.54,3.54,0,0,0,63,78Z" transform="translate(-26.17 -4)"></path>
  <path d="M74,8.27A1.27,1.27,0,0,1,74.46,10L70.9,16.16a1.26,1.26,0,0,1-1.1.64,1.32,1.32,0,0,1-.63-.17,1.28,1.28,0,0,1-.47-1.74l3.56-6.16A1.28,1.28,0,0,1,74,8.27Z" transform="translate(-26.17 -4)"></path>
  <path d="M73.29,35.66c0,.47,0,1-.06,1.42A1.27,1.27,0,0,1,72,38.24h-.12a1.27,1.27,0,0,1-1.15-1.38,11.72,11.72,0,0,0,0-1.19A12.71,12.71,0,0,0,58.05,23a1.27,1.27,0,1,1,0-2.54A15.25,15.25,0,0,1,73.29,35.66Z" transform="translate(-26.17 -4)"></path>
  <path d="M71.4,40a1.27,1.27,0,0,1,.66,1.67,15.16,15.16,0,0,1-1.85,3.18,1.27,1.27,0,0,1-1,.5,1.29,1.29,0,0,1-.76-.26,1.27,1.27,0,0,1-.25-1.78,12.17,12.17,0,0,0,1.55-2.65A1.27,1.27,0,0,1,71.4,40Z" transform="translate(-26.17 -4)"></path>
  <path d="M64.56,74.64V75a3.18,3.18,0,0,1-.06.62L51.58,74.18v-1Z" transform="translate(-26.17 -4)" style="fill:#888"></path>
  <polygon points="38.38 65.44 38.38 68.08 25.4 66.6 25.4 65.44 38.38 65.44" style="fill:#888"></polygon>
  <path d="M52,76.79,63,78a3.54,3.54,0,0,1-2,.63H55.2A3.62,3.62,0,0,1,52,76.79Z" transform="translate(-26.17 -4)" style="fill:#888"></path>
  <path d="M59.32,5.27v7.11a1.27,1.27,0,0,1-2.54,0V5.27a1.27,1.27,0,0,1,2.54,0Z" transform="translate(-26.17 -4)"></path>
  <path d="M54.18,55.2a1.28,1.28,0,0,1-.82,1.6,1.32,1.32,0,0,1-.39.06A1.29,1.29,0,0,1,51.76,56a37.77,37.77,0,0,0-5.84-11.11,16.12,16.12,0,0,1-1.43-2.25,1.27,1.27,0,0,1,2.26-1.16,13.12,13.12,0,0,0,1.19,1.87A40.22,40.22,0,0,1,54.18,55.2Z" transform="translate(-26.17 -4)"></path>
  <path d="M47.4,14.89a1.27,1.27,0,0,1-.46,1.74,1.33,1.33,0,0,1-.64.17,1.28,1.28,0,0,1-1.1-.64L41.65,10a1.27,1.27,0,0,1,2.2-1.27Z" transform="translate(-26.17 -4)"></path>
  <path d="M45.49,37.57A1.26,1.26,0,0,1,44.42,39l-.18,0A1.28,1.28,0,0,1,43,37.94a16.22,16.22,0,0,1-.17-2.42,1.27,1.27,0,1,1,2.54,0A13.76,13.76,0,0,0,45.49,37.57Z" transform="translate(-26.17 -4)"></path>
  <path d="M38.34,23a1.27,1.27,0,0,1-.64,2.37,1.22,1.22,0,0,1-.63-.17l-6.16-3.55a1.28,1.28,0,0,1-.47-1.74,1.26,1.26,0,0,1,1.74-.46Z" transform="translate(-26.17 -4)"></path>
  <path d="M38.8,47a1.27,1.27,0,0,1-.46,1.73l-6.16,3.56a1.33,1.33,0,0,1-.64.17,1.28,1.28,0,0,1-1.1-.64,1.26,1.26,0,0,1,.47-1.73l6.16-3.56A1.27,1.27,0,0,1,38.8,47Z" transform="translate(-26.17 -4)"></path>
  <path d="M34.56,34.61a1.27,1.27,0,0,1,0,2.54H27.44a1.27,1.27,0,0,1,0-2.54Z" transform="translate(-26.17 -4)"></path>
</svg>