<svg id="webMaintenanceSVG" data-name="webMaintenanceSVG" xmlns="http://www.w3.org/2000/svg" viewBox="0 0 105.32 66.36">
  <path d="M110.35,62.3a1.74,1.74,0,0,1-1.74,1.75H6.78A1.75,1.75,0,0,1,5,62.3a52.66,52.66,0,0,1,89.9-37.23A52.32,52.32,0,0,1,110.35,62.3Zm-5.14-1.74h1.62a49.17,49.17,0,0,0-98.27,0h1.62a47.55,47.55,0,0,1,95,0Zm-23.3,0h19.81a44.45,44.45,0,0,0-1-8l-5.43,1.46a1.76,1.76,0,0,1-.46.06,1.75,1.75,0,0,1-.45-3.43l5.44-1.46a44.77,44.77,0,0,0-3.08-7.42l-4.87,2.81a1.76,1.76,0,0,1-.87.24,1.75,1.75,0,0,1-.88-3.26l4.87-2.81A44.47,44.47,0,0,0,90,32.42l-4,4a1.77,1.77,0,0,1-1.24.51,1.75,1.75,0,0,1-1.23-3l4-4a44.57,44.57,0,0,0-6.36-4.89L78.4,29.92a1.74,1.74,0,0,1-1.51.87,1.69,1.69,0,0,1-.87-.23,1.75,1.75,0,0,1-.64-2.39l2.81-4.86a43.59,43.59,0,0,0-7.42-3.08l-1.45,5.43A1.76,1.76,0,0,1,67.63,27a2.32,2.32,0,0,1-.45-.06,1.75,1.75,0,0,1-1.24-2.14l1.46-5.44a44.45,44.45,0,0,0-8-1v5.63a1.75,1.75,0,0,1-3.49,0V18.28a44.45,44.45,0,0,0-8,1l1.46,5.44a1.75,1.75,0,0,1-1.23,2.14,2.53,2.53,0,0,1-.46.06,1.75,1.75,0,0,1-1.68-1.3l-1.46-5.43a43.13,43.13,0,0,0-7.42,3.08L40,28.17a1.75,1.75,0,0,1-3,1.75l-2.81-4.86A45.14,45.14,0,0,0,27.81,30l4,4a1.75,1.75,0,0,1-2.47,2.47l-4-4a45.73,45.73,0,0,0-4.89,6.36l4.86,2.81a1.75,1.75,0,0,1-.87,3.26,1.8,1.8,0,0,1-.87-.23L18.7,41.81a43.49,43.49,0,0,0-3.08,7.41l5.43,1.46a1.74,1.74,0,0,1-.45,3.43,1.88,1.88,0,0,1-.46-.06l-5.43-1.46a43.56,43.56,0,0,0-1,8h19.8A24.27,24.27,0,0,1,73.57,44l4.59-4.58a1.73,1.73,0,0,1,2.47,0,1.75,1.75,0,0,1,0,2.47L76,46.42A24.12,24.12,0,0,1,81.91,60.56Zm-20,0h16.5A20.67,20.67,0,0,0,73.57,48.9Zm-4.94,0L71.1,46.43A20.77,20.77,0,0,0,37,60.56Z" transform="translate(-5.03 -9.64)"></path>
  <path d="M106.83,60.56h-1.62a47.55,47.55,0,0,0-95,0H8.56a49.17,49.17,0,0,1,98.27,0Z" transform="translate(-5.03 -9.64)" style="fill:#888"></path>
  <path d="M101.72,60.56H81.91A24.12,24.12,0,0,0,76,46.42l4.59-4.58a1.75,1.75,0,0,0,0-2.47,1.73,1.73,0,0,0-2.47,0L73.57,44a24.27,24.27,0,0,0-40.1,16.61H13.67a43.56,43.56,0,0,1,1-8l5.43,1.46a1.88,1.88,0,0,0,.46.06,1.74,1.74,0,0,0,.45-3.43l-5.43-1.46a43.49,43.49,0,0,1,3.08-7.41l4.87,2.81a1.8,1.8,0,0,0,.87.23,1.75,1.75,0,0,0,.87-3.26l-4.86-2.81a45.73,45.73,0,0,1,4.89-6.36l4,4a1.75,1.75,0,1,0,2.47-2.47l-4-4a45.14,45.14,0,0,1,6.36-4.89L37,29.92a1.75,1.75,0,0,0,3-1.75l-2.82-4.86a43.13,43.13,0,0,1,7.42-3.08l1.46,5.43A1.75,1.75,0,0,0,47.75,27a2.53,2.53,0,0,0,.46-.06,1.75,1.75,0,0,0,1.23-2.14L48,19.32a44.45,44.45,0,0,1,8-1v5.63a1.75,1.75,0,0,0,3.49,0V18.28a44.45,44.45,0,0,1,8,1l-1.46,5.44a1.75,1.75,0,0,0,1.24,2.14,2.32,2.32,0,0,0,.45.06,1.76,1.76,0,0,0,1.69-1.3l1.45-5.43a43.59,43.59,0,0,1,7.42,3.08l-2.81,4.86A1.75,1.75,0,0,0,76,30.56a1.69,1.69,0,0,0,.87.23,1.74,1.74,0,0,0,1.51-.87l2.81-4.86A44.57,44.57,0,0,1,87.57,30l-4,4a1.75,1.75,0,0,0,1.23,3,1.77,1.77,0,0,0,1.24-.51l4-4a44.47,44.47,0,0,1,4.9,6.36l-4.87,2.81A1.75,1.75,0,0,0,91,44.85a1.76,1.76,0,0,0,.87-.24l4.87-2.81a44.77,44.77,0,0,1,3.08,7.42l-5.44,1.46a1.75,1.75,0,0,0,.91,3.37l5.43-1.46A44.45,44.45,0,0,1,101.72,60.56Z" transform="translate(-5.03 -9.64)" style="fill:#888"></path>
  <path d="M99.63,66.69a1.75,1.75,0,1,1,0,3.49H15.75a1.75,1.75,0,1,1,0-3.49Z" transform="translate(-5.03 -9.64)"></path>
  <path d="M85.63,72.51a1.75,1.75,0,1,1,0,3.49H29.75a1.75,1.75,0,1,1,0-3.49Z" transform="translate(-5.03 -9.64)"></path>
</svg>