<svg id="webDevelopmentSVG" data-name="webDevelopmentSVG" xmlns="http://www.w3.org/2000/svg" viewBox="0 0 105.1 77.92">
  <path d="M110.1,25.24V80.1a1.82,1.82,0,0,1-1.82,1.82H32.06a1.83,1.83,0,0,1-1.82-1.82V62.5H6.82A1.83,1.83,0,0,1,5,60.68V5.82A1.83,1.83,0,0,1,6.82,4H83a1.83,1.83,0,0,1,1.82,1.82v17.6h23.42A1.81,1.81,0,0,1,110.1,25.24Zm-3.64,53V37.81H59.52V78.27Zm0-44.1V27.06H33.89v7.11ZM81.22,23.42v-5H8.64V58.86h21.6V25.24a1.82,1.82,0,0,1,1.82-1.82Zm0-8.67V7.64H8.64v7.11ZM55.88,78.27V37.81h-22V78.27Z" transform="translate(-5 -4)"></path>
  <path d="M106.46,27.06v7.11H33.89V27.06Zm-58,3.56A1.83,1.83,0,1,0,48,31.9,1.83,1.83,0,0,0,48.49,30.62Zm-4.51,0a1.82,1.82,0,0,0-3.11-1.29,1.82,1.82,0,0,0,0,2.57A1.82,1.82,0,0,0,44,30.62Zm-4.51,0a1.83,1.83,0,0,0-1.82-1.83,1.8,1.8,0,0,0-1.28.54,1.8,1.8,0,0,0,0,2.57,1.82,1.82,0,0,0,1.28.54,1.83,1.83,0,0,0,1.82-1.82Z" transform="translate(-5 -4)" style="fill:#888"></path>
  <path d="M91.66,41.55a1.82,1.82,0,1,1,0,3.64H64.3a1.82,1.82,0,0,1,0-3.64Z" transform="translate(-5 -4)"></path>
  <path d="M91.66,48.11a1.82,1.82,0,1,1,0,3.64H64.3a1.82,1.82,0,0,1,0-3.64Z" transform="translate(-5 -4)"></path>
  <path d="M91.66,54.66a1.82,1.82,0,1,1,0,3.64H64.3a1.82,1.82,0,0,1,0-3.64Z" transform="translate(-5 -4)"></path>
  <path d="M81.22,7.64v7.11H8.64V7.64Zm-58,3.56a1.84,1.84,0,0,0-.54-1.29,1.81,1.81,0,0,0-1.28-.53,1.81,1.81,0,0,0-1.82,1.82,1.79,1.79,0,0,0,.53,1.28,1.8,1.8,0,0,0,2.57,0A1.82,1.82,0,0,0,23.25,11.2Zm-4.51,0a1.88,1.88,0,0,0-.53-1.29A1.82,1.82,0,0,0,15.1,11.2a1.79,1.79,0,0,0,.53,1.28,1.82,1.82,0,0,0,3.11-1.28Zm-4.51,0a1.82,1.82,0,1,0-3.64,0,1.79,1.79,0,0,0,.53,1.28,1.81,1.81,0,0,0,2.58,0A1.81,1.81,0,0,0,14.23,11.2Z" transform="translate(-5 -4)" style="fill:#888"></path>
  <path d="M50.71,41.55a1.82,1.82,0,0,1,0,3.64H39.06a1.82,1.82,0,0,1,0-3.64Z" transform="translate(-5 -4)"></path>
  <path d="M50.71,48.11a1.82,1.82,0,0,1,0,3.64H39.06a1.82,1.82,0,0,1,0-3.64Z" transform="translate(-5 -4)"></path>
  <path d="M50.71,54.66a1.82,1.82,0,0,1,0,3.64H39.06a1.82,1.82,0,0,1,0-3.64Z" transform="translate(-5 -4)"></path>
  <path d="M48,29.33a1.81,1.81,0,1,1-1.29-.54A1.83,1.83,0,0,1,48,29.33Z" transform="translate(-5 -4)"></path>
  <path d="M43.45,29.33a1.82,1.82,0,1,1-2.58,2.57,1.82,1.82,0,0,1,0-2.57,1.81,1.81,0,0,1,2.58,0Z" transform="translate(-5 -4)"></path>
  <path d="M38.94,29.33a1.83,1.83,0,1,1-2.57,0,1.8,1.8,0,0,1,1.28-.54A1.84,1.84,0,0,1,38.94,29.33Z" transform="translate(-5 -4)"></path>
  <path d="M25.46,22.13a1.83,1.83,0,1,1,0,3.65H13.81a1.83,1.83,0,0,1,0-3.65Z" transform="translate(-5 -4)"></path>
  <path d="M25.46,28.69a1.82,1.82,0,1,1,0,3.64H13.81a1.82,1.82,0,0,1,0-3.64Z" transform="translate(-5 -4)"></path>
  <path d="M25.46,35.24a1.82,1.82,0,1,1,0,3.64H13.81a1.82,1.82,0,1,1,0-3.64Z" transform="translate(-5 -4)"></path>
  <path d="M22.71,9.91a1.84,1.84,0,0,1,.54,1.29A1.84,1.84,0,0,1,21.43,13a1.84,1.84,0,0,1-1.29-.54,1.79,1.79,0,0,1-.53-1.28,1.81,1.81,0,0,1,1.82-1.82A1.81,1.81,0,0,1,22.71,9.91Z" transform="translate(-5 -4)"></path>
  <path d="M18.21,9.91a1.88,1.88,0,0,1,.53,1.29,1.82,1.82,0,0,1-3.11,1.28,1.79,1.79,0,0,1-.53-1.28,1.82,1.82,0,0,1,3.11-1.29Z" transform="translate(-5 -4)"></path>
  <path d="M13.7,9.91a1.83,1.83,0,0,1,.53,1.29,1.81,1.81,0,0,1-.53,1.28,1.81,1.81,0,0,1-2.58,0,1.79,1.79,0,0,1-.53-1.28A1.82,1.82,0,0,1,13.7,9.91Z" transform="translate(-5 -4)"></path>
</svg>