<svg xmlns="http://www.w3.org/2000/svg" xmlns:xlink="http://www.w3.org/1999/xlink" viewBox="0 0 3364.84 3374.33" preserveAspectRatio="xMinYMin">
  <g>
    <g>
      <circle style="display:inline;" fill="#FFFFFF" cx="1685.61" cy="1684.26" r="1645"></circle>
    </g>
    <g>
      <path fill="#0556CC" d="M1689.04,2277.81c-307.91-309.01-609.54-611.72-917.44-920.73c-83.03,237.56-78.78,464.37,10.99,687.9
			c89.72,223.41,243.98,392.02,454.83,504.81c-144.7,144.08-286.61,285.39-433.42,431.58
			c-383.01-268.56-619.23-636.98-671.83-1106.96C68.39,1304.6,265.65,831.56,706.41,457.71
			c327.02,327.83,649.93,651.54,973.97,976.38c328.03-329.2,650.74-653.07,972.34-975.83c47.97,21.69,75.72,53.42,105.3,81.43
			c186.41,176.51,323.11,385.11,408.88,628.07c69.54,196.99,93.7,399.33,83.89,606.39c-6.77,143.01-35.99,281.85-82.3,417.8
			c-45.58,133.82-109.98,257.19-185.86,375.79c-21.66,33.86-77.08,97.91-83.68,111.35c-57.74,66.69-121.69,132.73-195.01,194.26
			c0,0-71.81,60.82-135.31,105.62c-5.68,6.45-14.96,0.37-23.45-8.14c-135.64-136.02-271.21-272.11-406.69-408.29
			c-1.4-1.41-1.55-4.08-3.81-10.52c300.57-170.55,480.97-426.8,520.91-772.68c16.11-139.51,3.03-279.52-55.46-415.65
			C2296.37,1668.44,1995.42,1970.41,1689.04,2277.81z">
      </path>
      <path fill="#2B2B2B" d="M2457.68,3052.64c-245.81,137.11-508.94,203.92-790.52,202.91c-279.07-1.01-597.34-101.71-756.37-211.35
			c148.51-148.75,295.85-296.32,444.88-445.58c221.03,75.1,441.06,75.74,652.45,3L2457.68,3052.64z">
      </path>
    </g>
    <path d="M1685.61,120.26c106.17,0,212.25,10.69,315.29,31.78c100.38,20.54,199.12,51.19,293.47,91.1
    c92.66,39.19,182.03,87.7,265.64,144.18c82.83,55.96,160.73,120.23,231.52,191.03c70.79,70.79,135.06,148.69,191.03,231.52
    c56.48,83.61,105,172.98,144.19,265.64c39.91,94.35,70.56,193.09,91.1,293.47c21.08,103.04,31.78,209.12,31.78,315.29
    s-10.69,212.25-31.78,315.29c-20.54,100.38-51.19,199.12-91.1,293.47c-39.19,92.66-87.7,182.03-144.19,265.64
    c-55.96,82.83-120.23,160.73-191.03,231.52s-148.69,135.06-231.52,191.03c-83.61,56.48-172.98,105-265.64,144.19
    c-94.35,39.91-193.09,70.56-293.47,91.1c-103.04,21.09-209.12,31.78-315.29,31.78s-212.25-10.69-315.29-31.78
    c-100.38-20.54-199.12-51.19-293.47-91.1c-92.66-39.19-182.03-87.7-265.64-144.19c-82.83-55.96-160.73-120.23-231.52-191.03
    c-70.79-70.79-135.06-148.69-191.03-231.52c-56.48-83.61-104.99-172.98-144.18-265.64c-39.91-94.35-70.56-193.09-91.1-293.47
    c-21.08-103.04-31.78-209.12-31.78-315.29s10.69-212.25,31.78-315.29c20.54-100.38,51.19-199.12,91.1-293.47
    c39.19-92.66,87.7-182.03,144.18-265.64c55.96-82.83,120.23-160.73,191.03-231.52c70.79-70.79,148.69-135.06,231.52-191.03
    c83.61-56.48,172.98-104.99,265.64-144.18c94.35-39.91,193.09-70.56,293.47-91.1C1473.37,130.96,1579.45,120.26,1685.61,120.26
    M1685.61,39.26c-908.51,0-1645,736.49-1645,1645s736.49,1645,1645,1645s1645-736.49,1645-1645S2594.12,39.26,1685.61,39.26
    L1685.61,39.26z">
    </path>
    <path fill="#0556CC" d="M1178.55,376.74h133.29c58.87,0,96.64,9.26,113.3,27.77c19.99,17.59,29.99,44.62,29.99,81.09v19.99
		c0,31.48-11.85,51.1-35.55,58.87c-13.52,4.44-22.03,6.67-25.55,6.67v1.11c18.88,3.33,35.17,10.37,48.87,21.1
		c14.07,13.7,21.1,35.18,21.1,64.43v51.1c0,43.69-12.59,71.09-37.77,82.2c-16.48,6.66-43.14,10-79.98,10h-167.73V376.74z
		 M1301.85,450.05v1.11v276.59h2.22c22.95,0,34.43-5.92,34.43-17.77c1.48,0,2.22-6.29,2.22-18.88v-45.54
		c0-20.73-3.71-31.1-11.11-31.1c0-0.92-4.07-2.04-12.22-3.33v-68.87h3.33c12.59,0,18.88-9.26,18.88-27.77
		c0.74-1.67,1.11-7.96,1.11-18.88v-7.78c0-24.44-7.41-36.66-22.22-36.66C1315.36,450.43,1309.81,450.05,1301.85,450.05z
		 M1491.52,376.74h133.29c58.87,0,96.64,9.26,113.3,27.77c19.99,17.59,29.99,44.62,29.99,81.09v19.99
		c0,31.48-11.85,51.1-35.54,58.87c-13.52,4.44-22.03,6.67-25.55,6.67v1.11c18.88,3.33,35.17,10.37,48.87,21.1
		c14.07,13.7,21.11,35.18,21.11,64.43v51.1c0,43.69-12.59,71.09-37.77,82.2c-16.48,6.66-43.14,10-79.98,10h-167.73V376.74z
		 M1614.81,450.05v1.11v276.59h2.22c22.95,0,34.43-5.92,34.43-17.77c1.48,0,2.22-6.29,2.22-18.88v-45.54
		c0-20.73-3.71-31.1-11.11-31.1c0-0.92-4.07-2.04-12.22-3.33v-68.87h3.33c12.59,0,18.88-9.26,18.88-27.77
		c0.74-1.67,1.11-7.96,1.11-18.88v-7.78c0-24.44-7.41-36.66-22.22-36.66C1628.33,450.43,1622.77,450.05,1614.81,450.05z
		 M1804.48,376.74h158.84c5.18,29.25,15.55,93.68,31.1,193.28h1.11c0-2.59,8.89-67.02,26.66-193.28h158.84
		c1.48,0.19,2.22,0.93,2.22,2.22v422.1H2074.4V528.92h-1.11c0,3.33-13.33,94.05-39.99,272.14h-77.76l-42.21-268.81h-1.11v268.81
		h-107.75V376.74z">
    </path>
  </g>
</svg>