<svg xmlns="http://www.w3.org/2000/svg" xmlns:xlink="http://www.w3.org/1999/xlink" viewBox="0 0 1256.36 251.67" preserveAspectRatio="xMinYMin">
	<path fill="#ffffff" d="M405.44,146.34l-2.55,5.32c-6.98-4.76-16.51-7.14-24.57-7.14c-14.9,0-24.57,6.44-24.57,16.66
		c0,29.82,55.18,14.42,54.91,50.54c0,15.12-13.02,24.92-32.62,24.92c-12.49,0-25.24-5.74-33.43-14.14l2.95-5.18
		c7.65,8.26,19.6,13.3,30.61,13.3c16.11,0,26.45-7.28,26.45-18.76c0.27-30.66-54.91-14.98-54.91-50.26
		c0-14.14,12.35-23.24,30.88-23.24C388.12,138.36,398.45,141.58,405.44,146.34z M481.42,230.76v5.74h-47.39v-97.86h5.64v92.12H481.42
		z M588.55,187.5c0,27.16-21.75,49.14-48.6,49.14s-48.6-21.98-48.6-49.14c0-27.16,21.75-49,48.6-49S588.55,160.34,588.55,187.5z
		 M497.13,187.5c0,23.94,19.33,43.4,42.83,43.4s42.83-19.46,42.83-43.4c0-23.94-19.33-43.26-42.83-43.26S497.13,163.56,497.13,187.5z
		 M633.26,144.38v92.12h-5.64v-92.12h-31.68v-5.74h69v5.74H633.26z M751.8,236.5v-46.2h-63.5v46.2h-5.64v-97.86h5.64v45.92h63.5
		v-45.92h5.64v97.86H751.8z M905.45,151.66l-3.36,4.48c-7.79-7.56-18.39-12.04-29.53-12.04c-23.76,0-42.96,19.32-42.96,43.26
		c0,24.08,19.2,43.54,42.96,43.54c11.14,0,21.61-4.48,29.53-11.9l3.49,4.06c-8.73,8.4-20.67,13.58-33.16,13.58
		c-26.72,0-48.46-21.98-48.46-49.14c0-27.16,21.75-49,48.46-49C885.04,138.5,896.72,143.54,905.45,151.66z M1012.98,187.5
		c0,27.16-21.75,49.14-48.6,49.14c-26.85,0-48.6-21.98-48.6-49.14c0-27.16,21.75-49,48.6-49
		C991.23,138.5,1012.98,160.34,1012.98,187.5z M921.56,187.5c0,23.94,19.33,43.4,42.82,43.4c23.49,0,42.83-19.46,42.83-43.4
		c0-23.94-19.33-43.26-42.83-43.26C940.89,144.24,921.56,163.56,921.56,187.5z M1032.72,232.44c0,2.94-2.15,5.18-4.7,5.18
		s-4.56-2.24-4.56-5.18c0-2.8,2.01-4.9,4.56-4.9S1032.72,229.64,1032.72,232.44z M421.21,87.3l3.47,4.03
		c-8.66,8.34-20.53,13.48-32.92,13.48c-26.52,0-48.12-21.82-48.12-48.79c0-26.97,21.59-48.65,48.12-48.65
		c12.53,0,24.12,5,32.79,13.07l-3.33,4.45c-7.73-7.51-18.26-11.96-29.32-11.96c-23.59,0-42.65,19.18-42.65,42.95
		c0,23.91,19.06,43.23,42.65,43.23C402.95,99.11,413.35,94.67,421.21,87.3z M474.4,7.51l-42.25,97.17h6.13l39.05-90.49l39.59,90.49
		h6.13L480.39,7.51H474.4z M741.37,57.83v-5.84h-54.11v5.84H741.37z M1244.95,56.16c0,26.97-21.33,48.51-47.98,48.51h-36.92V7.51
		h37.05C1223.62,7.51,1244.95,28.92,1244.95,56.16z M1239.22,56.16c0-23.91-18.79-42.95-42.25-42.95h-31.32v85.77h31.46
		C1220.42,98.98,1239.22,79.93,1239.22,56.16z M1073.81,57.83h54.11v-5.84h-54.11V57.83z M747.37,13.21v-5.7h-60.11v5.7H747.37z
		 M1133.92,13.21v-5.7h-60.11v5.69L1133.92,13.21z M540.11,13.21h56.11v-5.7h-56.11V13.21z M540.11,55.19v49.49h5.6V61.03h44.78
		v-5.84H540.11z M944.64,7.51l-42.25,97.17h6.13l39.05-90.49l39.59,90.49h6.13L950.64,7.51H944.64z M987.7,13.21h31.46v91.47h5.6
		V13.21h31.46v-5.7H987.7V13.21z M1073.81,98.98v5.7h61.84v-5.7H1073.81z M879.86,95.78L817.62,7.51h-6.53v97.17h5.6V16.4
		l62.11,88.27h6.53V7.51h-5.46V95.78z M773.5,104.67h5.6V7.51h-5.6V104.67z M613.68,13.21h56.11v-5.7h-56.11V13.21z M687.26,98.98
		v5.7h61.84v-5.7H687.26z M613.68,55.19v49.49h5.6V61.03h44.78v-5.84H613.68z M313.98,153.01c-0.95-21.61-5.87-41.56-13.96-59.33
		c-8.09-17.77-19.36-33.37-33.01-46.27c-13.66-12.9-29.7-23.09-47.34-30.06c-17.64-6.97-36.87-10.71-56.92-10.72v0c0,0-0.01,0-0.01,0
		c0,0-0.01,0-0.01,0v0c-20.05,0-39.28,3.75-56.92,10.72c-17.64,6.97-33.69,17.17-47.34,30.06C44.81,60.3,33.54,75.9,25.45,93.67
		c-8.09,17.77-13.01,37.73-13.96,59.33c-0.68,15.44,3.34,28.27,11.03,38.86s19.04,18.92,33.02,25.36c13.99,6.44,30.6,10.99,48.82,14
		c18.2,3.01,37.99,4.48,58.34,4.78v0c0.01,0,0.02,0,0.03,0c0.01,0,0.02,0,0.03,0v0c20.35-0.3,40.15-1.77,58.34-4.78
		c18.22-3.01,34.83-7.56,48.82-14c13.99-6.44,25.34-14.78,33.02-25.36C310.64,181.28,314.66,168.45,313.98,153.01z M234.97,83.05
		c-21.05-9.36-33.23-4.89-37.78-2.8c-8.21,3.78-14.53,9.92-15.8,18.6c-2.04,13.89,4.44,30.62,34.06,41.34
		c54.78,19.84,71.64,31.47,66.72,39.46c-0.55,0.67-1.13,1.33-1.74,1.98c-2.14,2.27-4.66,4.43-7.54,6.49s-6.14,4-9.73,5.82
		c-3.77,1.91-7.92,3.68-12.44,5.31s-9.38,3.12-14.58,4.45c-7.12,1.82-14.82,3.35-23.08,4.59c-8.26,1.24-25.71,2.82-50.3,2.82
		c-24.59,0-42.05-1.59-50.3-2.82c-8.26-1.24-15.96-2.77-23.08-4.59c-5.2-1.33-10.07-2.82-14.58-4.45s-8.67-3.4-12.44-5.31
		c-3.6-1.82-6.85-3.77-9.73-5.82s-5.41-4.23-7.54-6.49c-0.61-0.65-1.19-1.31-1.74-1.98c-4.92-7.99,11.94-19.63,66.72-39.46
		c29.61-10.72,36.09-27.45,34.06-41.34c-1.27-8.68-7.59-14.81-15.8-18.6c-4.55-2.1-16.73-6.57-37.78,2.8
		c-4.64,2.07-19.34,9.8-33.68,23.13c-8.04,7.47-14.15,15.63-18.35,23.89c0.16-0.73,0.32-1.45,0.49-2.18
		c1.98-8.43,4.74-16.55,8.27-24.31c3.35-7.37,7.36-14.31,11.98-20.79c4.62-6.48,9.86-12.49,15.69-17.99
		c8.84-8.35,18.79-15.28,29.55-20.67c10.68-5.35,32.15-11.34,57.71-11.44c0.19,0,0.39,0,0.58,0c0.2,0,0.39,0,0.58,0
		c25.56,0.09,47.03,6.09,57.71,11.44c10.76,5.39,20.71,12.32,29.55,20.67c5.83,5.5,11.07,11.51,15.69,17.99
		c4.62,6.48,8.63,13.43,11.98,20.79c3.53,7.75,6.29,15.88,8.27,24.31c0.17,0.72,0.33,1.45,0.49,2.18
		c-4.2-8.26-10.31-16.42-18.35-23.89C254.31,92.85,239.61,85.11,234.97,83.05z M261.24,123.17c-0.57,0.75-8.63-7.68-24.37-11.91
		c-7.72-2.08-9.96-1.17-19.49-3.79c-7.17-1.97-19.91-6.34-19.49-8.66c0.42-2.36,14.58-3.36,27.61,0
		C248.05,104.61,262.02,122.14,261.24,123.17z M100.19,98.8c13.03-3.36,27.19-2.36,27.61,0c0.42,2.32-12.32,6.69-19.49,8.66
		c-9.53,2.62-11.77,1.71-19.49,3.79c-15.73,4.23-23.8,12.66-24.37,11.91C63.68,122.14,77.64,104.61,100.19,98.8z M179.98,124.82
		c1.29,0.61,2.46,1.46,3.69,2.2c0.49,0.46,0.99,0.93,1.48,1.39c4.28,4.39,2.79,10.62-0.08,14.31c-3.82,5.15-9.1,8.02-15.2,9.44
		c-8.65,2-16.75,0.48-24.13-4.43c-3.19-2.12-5.7-4.92-7.07-8.58c-1.29-3.47-1.12-6.81,1.18-9.84c1.55-2.04,3.59-3.49,5.92-4.53
		c3.51-1.58,7.23-2.36,11.04-2.87c3.17-0.43,6.34-0.39,9.49-0.23C171.03,121.9,175.66,122.76,179.98,124.82z M201.51,161.59
		c2.35-1.01,5.21,0.18,6.45,1.42c1.24,1.24,2,2.95,2,4.84s0,3.32-4.54,6.35c-26.86,13.55-57.02,13.63-85.76-0.5
		c-3.24-1.8-3.93-3.96-3.93-5.85s0.77-3.6,2-4.84c1.24-1.24,3.64-2.57,6.06-1.56C155.01,174.44,172.04,174.26,201.51,161.59z
		 M311.55,223.91c-0.47,2.64-2.5,4.17-5.09,4.17c-3,0-5.36-2.4-5.36-5.49c0-3.07,2.36-5.49,5.36-5.49c2.48,0,4.59,1.54,5.08,4.03
		l-2.44,0.6c-0.32-1.52-1.34-2.26-2.64-2.26c-1.6,0-2.88,1.33-2.88,3.12s1.28,3.14,2.88,3.14c1.28,0,2.3-0.75,2.65-2.32
		L311.55,223.91z M306.32,233.28c-5.79,0-10.5-4.71-10.5-10.5s4.71-10.5,10.5-10.5s10.5,4.71,10.5,10.5S312.11,233.28,306.32,233.28z
		 M306.32,214.28c-4.69,0-8.5,3.81-8.5,8.5s3.81,8.5,8.5,8.5s8.5-3.81,8.5-8.5S311.01,214.28,306.32,214.28z"></path>
</svg>