<svg xmlns="http://www.w3.org/2000/svg" xmlns:xlink="http://www.w3.org/1999/xlink" viewBox="0 0 4000 2299.85" preserveAspectRatio="xMinYMin">
  <path fill="#40403F" d="M1995,1929c-32.14,0-64.28-5.42-94.88-16.25L815.72,1528.82c-55.7-19.72-103.17-55.65-137.27-103.9
		c-34.1-48.25-52.13-104.99-52.13-164.07V723.05c0-59.09,18.03-115.82,52.13-164.07c34.1-48.25,81.57-84.18,137.27-103.9
		L1905.32,69.3c28.68-10.15,58.64-15.62,89.05-16.24c30.4-0.63,60.57,3.61,89.64,12.58l1079.21,332.99
		c58.47,18.04,108.58,53.6,144.92,102.84c36.33,49.24,55.54,107.61,55.54,168.8v590.58c0,59.09-18.03,115.82-52.13,164.07
		c-34.1,48.25-81.57,84.18-137.27,103.9l-1084.41,383.94C2059.29,1923.58,2027.14,1929,1995,1929z"></path>
  <path fill="#FFFFFF" d="M2394.99,871.64v219.64l-299.07-0.64l-1.59-220L2394.99,871.64z M2332.17,553.96v211h-237.85v-10.34
		c0-101.01-35.11-167.89-105.31-200.66H2332.17z M2419.78,1092.45l-324.52,1.09l-0.94-222.9l334.59,0.32
		c48.91-2.57,91.06,2.51,91.42-52c0.35-52.99-40.28-51.37-94.87-54l-330.2,2.6l3.96-214.02l477.26,0.42
		c160.55,0,240.83,70.19,240.83,210.55c0,0-1.99,140.12-3,149.68c-3.23,30.46-17.9,77.39-58,106.27
		c40.09,28.88,60.16,63.97,60.16,105.28l-0.16,279.23h-301.04l0.04-219.17C2515.32,1145.67,2479.78,1092.45,2419.78,1092.45z"></path>
  <path fill="#9B1D21" d="M1795.32,1099.96h272v90.93c0,141.39-72.62,212.07-217.88,212.07h-490.23c-145.27,0-217.89-70.68-217.89-212.07
		V993.96h272v136.38c0,40.42,27.24,60.62,81.74,60.62h218.65c54.4,0,81.61-20.22,81.61-60.67V1099.96z M2067.32,764.05v90.9h-273
		v-30.38c0-40.4-27.22-60.62-81.65-60.62h-217.72c-54.43,0-81.63,20.22-81.63,60.62v136.38h-272V764.03
		c0-141.38,72.64-212.07,217.93-212.07h489.67C1994.52,551.96,2067.32,622.66,2067.32,764.05z"></path>
  <g>
    <path fill="#9B1D21" d="M3232.96,2053.54h60.3v168.85h-60.3V2053.54z M3299.29,2180.17h114.58v42.21h-114.58V2180.17z
			 M3425.93,2053.54h60.3v168.85h-60.3V2053.54z M3492.26,2180.17h114.58v42.21h-114.58V2180.17z M3618.9,2134.95v-39.2
			c0-28.14,16.08-42.21,48.24-42.21h108.54c32.16,0,48.24,14.07,48.24,42.21v18.09h-60.3v-6.03c0-8.04-6.03-12.06-18.09-12.06h-48.24
			c-12.06,0-18.09,4.02-18.09,12.06v27.14H3618.9z M3679.2,2140.98v27.14c0,8.04,6.03,12.06,18.09,12.06h48.24
			c12.06,0,18.09-4.02,18.09-12.06v-6.03h60.3v18.09c0,28.14-16.08,42.21-48.24,42.21h-108.54c-32.16,0-48.24-14.07-48.24-42.21
			v-39.2H3679.2z M3061.08,2226.39h-24.12v-42.21h60.3v42.21l-36.18,36.18h-24.12v-12.06L3061.08,2226.39z M1460.95,2160.56v63.83
			h-70.92v-113.47h134.74c14.18,0,21.27-4.73,21.27-14.18v-7.09c0-9.45-7.09-14.18-21.27-14.18h-134.74v-49.64h170.2
			c37.82,0,56.73,16.55,56.73,49.64v35.46c0,9.74-4.73,18.01-14.18,24.82c9.45,6.81,14.18,15.08,14.18,24.82v63.83h-70.92v-49.64
			c0-9.45-7.09-14.18-21.27-14.18H1460.95z M1631.15,2055.6h60.28v63.26h96.45v42.27h-96.45v63.26h-60.28V2055.6z M1697.52,2055.6
			h114.46v42.12h-114.46V2055.6z M1697.52,2182.12h114.46v42.27h-114.46V2182.12z M1886.45,2224.39h-60.28V2055.6h60.28V2224.39z
			 M1892.55,2055.6h18.01l54.32,108.5l54.18-108.5h84.39v168.78h-60.28v-96.45l-48.22,96.45h-60.28l-42.12-84.39V2055.6z
			 M2117.64,2137.02v-39.29c0-28.08,16.07-42.12,48.22-42.12h108.5c32.15,0,48.22,14.04,48.22,42.12v39.29h-60.28v-27.23
			c0-8.04-6-12.06-18.01-12.06h-48.22c-12.1,0-18.15,4.02-18.15,12.06v27.23H2117.64z M2177.92,2142.97v27.09
			c0,8.04,6.05,12.06,18.15,12.06h48.22c12.01,0,18.01-4.02,18.01-12.06v-27.09h60.28v39.15c0,28.18-16.08,42.27-48.22,42.27h-108.5
			c-32.15,0-48.22-14.09-48.22-42.27v-39.15H2177.92z M2451.37,2164.11l54.18-108.5h60.28l-84.39,168.78h-60.28l-84.39-168.78h60.28
			L2451.37,2164.11z M2694.62,2115.88l-54.32,108.5h-60.28l84.39-168.78h60.28l84.39,168.78h-60.28L2694.62,2115.88z M2823.26,2055.6
			h60.28v168.78h-60.28V2055.6z M2889.64,2182.12h114.46v42.27h-114.46V2182.12z"></path>
    <path fill="#40403F" d="M207,2121.56v-46.1c0-33.09,18.91-49.64,56.73-49.64h127.65c37.82,0,56.73,16.55,56.73,49.64v21.28H377.2
			v-7.09c0-9.45-7.09-14.18-21.28-14.18h-56.73c-14.18,0-21.27,4.73-21.27,14.18v31.91H207z M277.92,2128.65v31.91
			c0,9.46,7.09,14.18,21.27,14.18h56.73c14.18,0,21.28-4.73,21.28-14.18v-7.09h70.92v21.28c0,33.1-18.91,49.64-56.73,49.64H263.73
			c-37.82,0-56.73-16.55-56.73-49.64v-46.1H277.92z M522.58,2224.39H462.3V2055.6h60.28V2224.39z M528.68,2118.86h84.39v42.27h-84.39
			V2118.86z M619.03,2055.6h60.28v168.78h-60.28V2055.6z M693.49,2055.6h60.28v63.26h96.45v42.27h-96.45v63.26h-60.28V2055.6z
			 M759.87,2055.6h114.46v42.12H759.87V2055.6z M759.87,2182.12h114.46v42.27H759.87V2182.12z M1003.11,2115.88l-54.32,108.5h-60.28
			l84.39-168.78h60.28l84.39,168.78h-60.28L1003.11,2115.88z M1198.13,2170.06v-42.12h48.22c12.01,0,18.01-4.02,18.01-12.06v-6.1
			c0-8.04-6.01-12.06-18.01-12.06h-54.32v126.66h-60.28V2055.6h144.67c32.15,0,48.22,14.04,48.22,42.12v30.21
			c0,28.08-16.08,42.12-48.22,42.12H1198.13z"></path>
  </g>
    <path fill="#9B1D21" d="M2001.32,1954.55c-32.87,0-65.74-5.54-97.02-16.61L795.36,1545.31c-56.96-20.17-105.5-56.91-140.37-106.25
		c-34.87-49.34-53.31-107.36-53.31-167.79V721.32c0-60.42,18.43-118.44,53.31-167.79c34.87-49.34,83.41-86.08,140.37-106.25
		l1114.25-394.5c29.32-10.38,59.96-15.97,91.06-16.61c31.09-0.64,61.94,3.69,91.67,12.86l1103.62,340.52
		c59.79,18.45,111.04,54.82,148.2,105.17c37.16,50.35,56.8,110.04,56.8,172.62v603.93c0,60.42-18.43,118.44-53.31,167.79
		c-34.87,49.34-83.41,86.08-140.37,106.25l-1108.94,392.62C2067.06,1949.01,2034.19,1954.55,2001.32,1954.55z M2006.69,125.34
		c-22.86,0-45.72,3.84-67.33,11.49L825.12,531.33c-80.32,28.44-134.28,104.79-134.28,189.99v549.96
		c0,85.2,53.96,161.56,134.28,189.99l1108.94,392.62c43.38,15.36,91.16,15.36,134.53,0l1108.94-392.62
		c80.32-28.44,134.28-104.79,134.28-189.99V667.34c0-43.39-13.62-84.77-39.38-119.68c-25.76-34.91-61.29-60.12-102.75-72.91
		L2066.06,134.23C2046.83,128.3,2026.76,125.34,2006.69,125.34z"></path>
</svg>