<?xml version="1.0" encoding="UTF-8" standalone="no"?>
<!-- Created with Inkscape (http://www.inkscape.org/) -->

<svg id="LogoSVG" data-name="LogoSVG" class="logo" xmlns="http://www.w3.org/2000/svg" viewBox="0 0 646.64 416.93">

	<path d="M30.28,373.29h73.83v13.23H7.61V295H30.28Z" transform="translate(-7.07 -3.81)" fill='#cbccce'></path>

	<path d="M125.66,307.54c14.36-8.51,34.56-13.88,56.55-13.88,22.21,0,42.19,5.37,56.77,13.88,14.14,8.52,23.34,20.17,23.34,33.14s-9.2,24.62-23.34,33.14c-14.58,8.64-34.56,13.88-56.77,13.88-22,0-42.19-5.24-56.55-13.88-14.14-8.52-23.34-20.17-23.34-33.14S111.52,316.06,125.66,307.54ZM222.83,317c-10.55-6.15-25.14-10-40.62-10s-29.85,3.8-40.17,10-16.83,14.41-16.83,23.71,6.51,17.68,16.83,23.71,24.68,9.95,40.17,9.95,30.07-3.8,40.62-9.95c10.09-6,16.6-14.28,16.6-23.71S232.92,323,222.83,317Z" transform="translate(-7.07 -3.81)" fill='#cbccce'></path>

	<path d="M310.8,386.92V308.2H263.23V294.84H380.82V308.2H333.47v78.72Z" transform="translate(-7.07 -3.81)" fill='#cbccce'></path>

	<path d="M400.57,359V295h22.89v64.18c0,10.08,18.62,15.06,35.23,15.06,16.38,0,35-5.11,35-15.19V295h22.89v64.18c0,18.6-31,28.29-57.9,28.29C431.09,387.44,400.57,377.75,400.57,359Z" transform="translate(-7.07 -3.81)" fill='#cbccce'></path>

	<path d="M627,318.54c-3.14-8.25-18.4-11.78-32.09-11.65-10.55.13-22.22,2.22-28.5,6.94-3.14,2.36-4.26,5.37-3.82,8.51,1.13,9.43,18.86,10.61,35.69,11.53,21.54,1.57,48.24,4.84,54.3,19.51a19.62,19.62,0,0,1,1.13,6c0,17.68-30.08,27.9-58.35,27.9-24.24,0-53.64-8.38-56.55-24.76l-.23-2.48,22.89-.27.23,2v-.53c1.57,8.52,19.3,13,33.88,13,16.83,0,35.24-5.5,35.24-14.93a8.91,8.91,0,0,0-.68-3.14c-2.69-6.95-18.85-8.13-34.56-9-24.46-1.44-53.18-4.59-55.65-23.71v.13c-.9-6.15,1.79-12.31,8.53-17.42,10.54-8,29.4-12.18,47.57-12.18,24.24,0,49.37,7.33,53.41,24.1Z" transform="translate(-7.07 -3.81)" fill='#cbccce'></path>

	<path d="M330.67,76.34q4.65-4.95,9.54-9.6a265.7,265.7,0,0,1,27.71-22.86A414.89,414.89,0,0,0,330.84,3.81,412.81,412.81,0,0,0,293.63,44a265,265,0,0,1,27.49,22.71q4.89,4.65,9.55,9.6Zm248,89.13a255.64,255.64,0,0,1,41.72,21.26c-26.66,48.39-59.54,84.86-109.29,89,34.71-24.18,55.32-65.14,67.57-110.25ZM509.06,40.93c15.48,43,15.64,91.13,3.08,135-11.49,40.11-34.76,79.52-68.9,104.37,78.23-4.91,129.83-73.59,135.17-253L509.06,40.93ZM479.22,18.86c62.31,106.57-3.37,269.36-112.94,269.36-54.86,0-68.67-57.88-68.67-97.67C297.61,96.93,413.34,18.86,479.22,18.86Z" transform="translate(-7.07 -3.81)" fill="#7cb342"></path>
	
	<path d="M182.12,18.86c39.57,0,97.12,28.18,136.78,71-17.33,21.51-30.7,46.35-36.28,73.44a135.8,135.8,0,0,0-2.81,27.28c0,34.78,9.41,72.74,33.24,95.3a66.23,66.23,0,0,1-18,2.37c-109.57,0-175.25-162.79-112.93-269.36ZM82.68,165.47A256.17,256.17,0,0,0,41,186.73c26.67,48.39,59.54,84.86,109.3,89-34.72-24.18-55.33-65.14-67.57-110.25Zm69.6-124.54L82.92,27.25c5.34,179.46,56.94,248.14,135.17,253.05C184,255.45,160.68,216,149.2,175.93,136.64,132.06,136.8,83.91,152.28,40.93Z" transform="translate(-7.07 -3.81)" fill="#4f5b62"></path>
</svg>
