<svg xmlns="http://www.w3.org/2000/svg" xmlns:xlink="http://www.w3.org/1999/xlink" viewBox="0 0 101 102.5" preserveAspectRatio="xMinYMin">
  <path fill="#EFEFEF" d="M89.4,60c-0.4,0-0.7,0-1.1,0c-0.4,0-0.7,0-1.1,0.1c-0.9,0.1-1.7,0.3-2.4,0.5c-0.8,0.2-1.5,0.5-2.2,0.7
		c-0.7,0.2-1.5,0.4-2.3,0.5c-0.8,0.1-1.6,0.1-2.6-0.1c-1-0.2-2.1-0.6-3-1c-1-0.4-1.9-1-2.8-1.6c-0.9-0.6-1.7-1.4-2.4-2.2
		c-0.7-0.8-1.3-1.7-1.8-2.6c-0.6-1.2-1-2.7-1.3-4.4c-0.2-1.7-0.3-3.5-0.2-5.3c0.1-2.9,0.3-4.6,0.9-6.6l-0.8-0.8
		c-0.8,1.1-1.4,2-2.4,3.8c-1,1.8-1.9,3.9-2.5,6.2c-0.6,2.3-0.7,4.7-0.3,7.1c0.5,2.4,0.4,4.1-0.2,5.4c-0.6,1.2-1.6,2-3,2.4
		c-1.4,0.4-3.2,0.5-5.3,0.3c-2.1-0.1-4.4-0.4-6.9-0.8c-2.5-0.4-5.2-0.7-8-0.9c-2.8-0.2-5.7-0.4-8.4-0.5c-2.8-0.1-5.5-0.1-8,0.1
		c-2.5,0.1-4.7,0.4-6.6,0.8c-0.9,0.2-1.8,0.3-2.9,0.5s-2.3,0.2-3.5,0.3c-1.2,0.1-2.5,0.1-3.8,0.1c-1.3,0-2.6,0-3.9,0
		c0.2,0.5,0.4,1.1,0.6,1.7c0.2,0.6,0.4,1.2,0.5,1.8c0.1,0.6,0.3,1.2,0.4,1.8c0.1,0.6,0.2,1.1,0.2,1.7l0.1,1.8l0.1,1.8l0.1,1.8
		l0.1,1.8c0,0.2,0.1,0.5,0.2,0.7s0.2,0.6,0.4,0.8c0.2,0.3,0.3,0.5,0.5,0.7c0.2,0.2,0.4,0.4,0.6,0.5l1.5,1l1.5,1l1.5,1l1.5,1
		c0.5,0.3,1.1,0.7,1.6,1.2c0.5,0.5,1.1,1,1.6,1.5c0.5,0.5,1,1.1,1.5,1.6c0.5,0.5,0.9,1.1,1.2,1.6l1,1.5l1,1.5l1,1.5l1,1.5
		c0.1,0.2,0.3,0.4,0.5,0.6c0.2,0.2,0.5,0.4,0.7,0.5c0.3,0.2,0.6,0.3,0.8,0.4c0.3,0.1,0.5,0.2,0.7,0.2l1.8,0.1l1.8,0.1l1.8,0.1
		l1.8,0.1c0.6,0,1.3,0.1,2,0.2c0.7,0.1,1.4,0.3,2.2,0.5s1.4,0.4,2.1,0.7c0.7,0.2,1.3,0.5,1.8,0.8l1.6,0.8l1.6,0.8l1.6,0.8l1.6,0.8
		c0.1,0,0.2,0.1,0.3,0.1c0.1,0,0.2,0.1,0.4,0.1c0.1,0,0.3,0.1,0.5,0.1c0.2,0,0.3,0,0.5,0c0.2,0,0.4,0,0.5,0c0.2,0,0.3,0,0.5-0.1
		c0.1,0,0.3-0.1,0.4-0.1c0.1,0,0.2-0.1,0.3-0.1l1.6-0.8l1.6-0.8l1.6-0.8l1.6-0.8c0.5-0.3,1.2-0.6,1.8-0.8c0.7-0.2,1.4-0.5,2.1-0.7
		c0.7-0.2,1.5-0.4,2.2-0.5c0.7-0.1,1.4-0.2,2-0.2l1.8-0.1l1.8-0.1l1.8-0.1l1.8-0.1c0.2,0,0.5-0.1,0.7-0.2c0.3-0.1,0.6-0.2,0.8-0.4
		c0.3-0.2,0.5-0.3,0.7-0.5c0.2-0.2,0.4-0.4,0.5-0.6l1-1.5l1-1.5l1-1.5l1-1.5c0.3-0.5,0.7-1.1,1.2-1.6c0.5-0.5,1-1.1,1.5-1.6
		s1.1-1,1.6-1.5c0.5-0.5,1.1-0.9,1.6-1.2l1.5-1l1.5-1l1.5-1l1.5-1c0.2-0.1,0.4-0.3,0.6-0.5c0.2-0.2,0.4-0.5,0.5-0.7
		c0.2-0.3,0.3-0.6,0.4-0.8c0.1-0.3,0.2-0.5,0.2-0.7l0.1-1.8l0.1-1.8l0.1-1.8l0.1-1.8c0-0.6,0.1-1.3,0.2-2c0.1-0.7,0.3-1.4,0.5-2.2
		s0.4-1.4,0.7-2.1c0.2-0.7,0.5-1.3,0.8-1.8l0.1-0.1l0.1-0.1l0.1-0.1l0.1-0.1c-0.4,0-0.8-0.1-1.1-0.1C90.2,60,89.8,60,89.4,60z
		 M50,65.3c0.2,0,0.5,0,0.7,0.1l0.3,10.5l4-10.5h1.2l0.3,10.5l4-10.5h0.9l-4.7,11.7h-1.7l-0.3-8.4l-3.4,8.4h-1.7l-0.4-10.9
		c-2,0-2.8,1.7-2.8,3.3c0,0.5,0.1,1,0.3,1.4c-0.7,0-1.4-0.3-1.4-1.4C45.1,67.3,47,65.3,50,65.3z M48.7,81.7c0,0.6-0.5,1-1.1,1
		c-0.6,0-1-0.5-1-1c0-0.6,0.5-1.1,1-1.1C48.2,80.6,48.7,81.1,48.7,81.7z M25,65.9c0.6,0,1.1,0.5,1.1,1.1c0,0.6-0.5,1-1.1,1
		c-0.6,0-1-0.5-1-1C23.9,66.4,24.4,65.9,25,65.9z M12.6,77.3c-0.6,0-1.3-0.3-2-0.9l-0.1,0.7H8.8L10.9,67l1.8-0.2l-2,9.1
		c0.3,0.3,0.7,0.4,1,0.4c2.3,0,3.4-4.2,3.4-7.1c0-2.5-0.9-3.3-2.8-3.3c-2.2,0-4.3,1.4-4.3,3.9c0,0.6,0.4,1,0.5,1.1
		c-1,0-1.7-0.4-1.7-1.5c0-2.2,2.7-4.2,5.8-4.2c3.1,0,4.3,2,4.3,4.6C17,73.4,14.8,77.3,12.6,77.3z M21.9,70.9c-0.4,0-0.3-0.4-0.8-0.4
		c-0.5,0-1,0.4-1.4,0.8l-1.2,5.8h-1.6l1.7-7.9h1.6l-0.3,1.3c0.6-0.7,1.2-1.4,2.1-1.4c0.6,0,0.9,0.3,0.9,0.7
		C22.8,70.7,22.2,70.9,21.9,70.9z M32.9,77.1l0.2-0.9c-0.7,0.9-1.3,1-1.7,1c-1.1,0-1.5-0.8-1.5-1.8c0-1.4,0.8-3.1,0.8-4.2
		c0-0.5-0.2-0.9-0.7-0.9c-0.7,0-1.2,0.6-1.7,1.7l-1.1,5.1h-1.6l0.2-0.9c-0.7,0.9-1.3,1-1.7,1c-1.1,0-1.4-0.8-1.4-1.7
		c0-0.4,0.1-0.8,0.1-1.2l1.1-5.1h1.6l-1.1,5.4c0,0.2-0.1,0.5-0.1,0.7c0,0.4,0.1,0.7,0.5,0.7c0.5,0,1-0.6,1.5-1.6l1.1-5.1h1.6
		l-0.3,1.2c0.8-1.1,1.6-1.3,2.1-1.3c1.3,0,1.6,0.8,1.6,1.8c0,1.4-0.8,3-0.8,4.3c0,0.4,0.1,0.8,0.5,0.8c0.5,0,1-0.6,1.5-1.7l1.7-8
		l1.6-0.2l-1.2,5.7l3.2-2.6h1.5l-3.1,2.2c0.1,0,0.2,0,0.3,0c1.2,0,1.5,0.9,1.5,1.7c0,0.9-0.3,1.5-0.3,2.2c0,0.6,0.3,0.7,0.6,0.7
		c0.1,0,0.3,0,0.6-0.1c0,0.8-0.6,1.3-1.4,1.3c-1.1,0-1.5-0.8-1.5-1.7c0-0.8,0.3-1.4,0.3-2.1c0-0.6-0.2-0.8-0.7-0.8
		c-0.6,0-1.1,0.4-1.6,1.2l-0.7,3.3H32.9z M43.5,91.8h-1.8l1.2-8.2l-3.4,8.2h-1.7l0.4-8.1l-3,8.1h-0.9l4.1-11
		c-1.8,0.4-2.7,1.8-2.7,3.7c0,0.8,0.1,0.9,0.2,1.1c-0.9,0-1.5-0.4-1.5-1.4c0-2.2,2.9-4.2,4.8-4.2c0.3,0,0.7,0.1,0.9,0.2l-0.4,9.1
		l3.8-9.1h1.8L43.5,91.8z M56.3,86.1c1.2,0,1.5,0.9,1.5,1.7c0,0.9-0.3,1.5-0.3,2.2c0,0.6,0.3,0.7,0.6,0.7c0.1,0,0.3,0,0.6-0.1
		c0,0.8-0.6,1.3-1.4,1.3c-1.1,0-1.5-0.8-1.5-1.7c0-0.8,0.3-1.4,0.3-2.1c0-0.6-0.2-0.8-0.7-0.8c-0.6,0-1.1,0.4-1.6,1.2l-0.7,3.3h-1.6
		l0.2-0.9c-0.7,0.9-1.3,1-1.7,1c-0.9,0-1.3-0.6-1.4-1.4c-0.8,1.2-1.5,1.4-2,1.4c-1.1,0-1.4-0.8-1.4-1.7c0-0.4,0.1-0.8,0.1-1.2
		l1.1-5.1h1.6l-1.1,5.4c0,0.2-0.1,0.5-0.1,0.7c0,0.4,0.1,0.7,0.5,0.7c0.5,0,1-0.6,1.5-1.7c0,0,0,0,0-0.1l1.7-8l1.6-0.2l-1.8,8.5
		c0,0.2-0.1,0.5-0.1,0.7c0,0.4,0.1,0.7,0.5,0.7c0.5,0,1-0.6,1.5-1.7l1.7-8l1.6-0.2l-1.2,5.7l3.2-2.6h1.5L56,86.1
		C56,86.1,56.2,86.1,56.3,86.1z M79.1,74c0,0.2,0,0.3,0,0.5c0,1.1,0.4,1.6,1.4,1.6c0.7,0,1.4-0.3,1.9-0.8c-0.3,1.5-1.4,2-2.6,2
		c-1,0-1.9-0.5-2.2-1.6c-0.8,1.4-1.6,1.6-2.1,1.6c-1.1,0-1.4-0.8-1.4-1.7c0-0.4,0.1-0.8,0.1-1.2l0.5-2.2c-0.4,0.2-0.9,0.3-1.3,0.3
		c-0.2,2.7-1.5,4.8-3.4,4.8c-1.1,0-2-0.5-2.3-1.6c-0.8,1.4-1.6,1.6-2.1,1.6c-1.1,0-1.5-0.8-1.5-1.8c0-1.4,0.8-3.1,0.8-4.2
		c0-0.5-0.2-0.9-0.7-0.9c-0.7,0-1.2,0.5-1.7,1.7l-1.1,5.1h-1.6l2.3-10.8l1.6-0.2l-0.9,4.3c0.8-1.1,1.6-1.3,2.1-1.3
		c1.3,0,1.6,0.8,1.6,1.8c0,1.4-0.8,3-0.8,4.3c0,0.4,0.1,0.8,0.5,0.8c0.5,0,0.9-0.5,1.3-1.4c0-1.8,0.9-5.4,4.1-5.4
		c1.2,0,1.8,0.9,1.8,2.5c0.5,0,1-0.1,1.4-0.3l1.1-5.1l1.6-0.2l-1.8,8.5c0,0.2-0.1,0.5-0.1,0.7c0,0.4,0.1,0.7,0.5,0.7
		c0.5,0,0.9-0.5,1.4-1.4c0-1.8,1.1-5.4,4-5.4c0.9,0,1.7,0.3,1.7,1.6C83,72.5,81.5,73.7,79.1,74z M71.9,71.8c0,0.4,0.1,0.6,0.6,0.6
		c-0.2,2.2-1.1,3.5-2,3.5c-1,0-1.3-0.5-1.3-1.6c0-1.6,0.9-4.4,2.5-4.4c0.5,0,0.9,0.3,0.9,1C72.1,71.1,71.9,71.3,71.9,71.8z
		 M100.3,9.2c-0.1-0.3-0.3-0.6-0.6-1l-1.7-1.7l-1.7-1.7l-1.7-1.7l-1.7-1.7c-0.3-0.3-0.6-0.5-1-0.6c-0.3-0.1-0.6-0.2-0.9-0.2
		c-0.3,0-0.6,0.1-0.8,0.2c-0.2,0.1-0.4,0.2-0.6,0.3l-4.3,4.3l-4.3,4.3l-4.3,4.3L72.4,18c-0.6,0.6-1.1,1.2-1.5,1.7
		c-0.4,0.5-0.7,1.1-1,1.6c-0.3,0.5-0.5,1.1-0.7,1.7c-0.2,0.6-0.4,1.3-0.6,2c-0.2,0.7-0.4,1.3-0.7,1.8c-0.3,0.5-0.5,1-0.8,1.4
		c-0.3,0.4-0.5,0.7-0.7,0.9c-0.2,0.2-0.3,0.3-0.3,0.3L65.4,30l-0.6,0.6l-0.5,0.5l0,0c-0.1-0.1-0.1-0.1-0.2-0.1c-0.1,0-0.1,0-0.2,0
		s-0.1,0-0.2,0c-0.1,0-0.1,0.1-0.2,0.1l-0.3,0.3l-0.3,0.3L62.6,32l-0.3,0.3c-0.1,0.1-0.1,0.1-0.1,0.2c0,0.1,0,0.1,0,0.2
		c0,0.1,0,0.1,0,0.2c0,0.1,0.1,0.1,0.1,0.2l1.4,1.4l1.4,1.4l1.4,1.4l1.4,1.4c0.1,0.1,0.1,0.1,0.2,0.1c0.1,0,0.1,0,0.2,0
		c0.1,0,0.1,0,0.2,0c0.1,0,0.1-0.1,0.2-0.1l0.3-0.3l0.3-0.3l0.3-0.3l0.3-0.3c0.1-0.1,0.1-0.1,0.1-0.2c0-0.1,0-0.1,0-0.2
		c0-0.1,0-0.1,0-0.2c0-0.1-0.1-0.1-0.1-0.2l0,0l0.5-0.5l0.6-0.6l0.6-0.6c0,0,0.1-0.1,0.3-0.3s0.5-0.4,0.9-0.7
		c0.4-0.3,0.8-0.5,1.4-0.8c0.5-0.3,1.1-0.5,1.8-0.7c0.7-0.2,1.4-0.4,2-0.6c0.6-0.2,1.2-0.5,1.7-0.7c0.5-0.3,1.1-0.6,1.6-1
		s1.1-0.9,1.7-1.5l4.3-4.3l4.3-4.3l4.3-4.3l4.3-4.3l0,0l0,0l0,0l0,0c0.1-0.1,0.2-0.3,0.3-0.6c0.1-0.2,0.1-0.5,0.2-0.8
		C100.5,9.9,100.5,9.6,100.3,9.2z M98.9,10.4c0,0.1-0.1,0.1-0.1,0.2l-4.2,4.2L90.3,19l-2.2,2.2c-0.3,0.1-0.7,0.1-1.2,0.2
		c-1.2,0.2-2.9,0.6-4.7,0.9c-1.9,0.3-4,0.6-6,0.9c-2,0.2-4,0.4-5.7,0.4c0,0,0,0,0,0c0.2-0.5,0.4-1,0.7-1.5c0.3-0.5,0.5-0.9,0.9-1.4
		c0.4-0.5,0.8-1,1.3-1.5l4.2-4.2l4.2-4.2l4.2-4.2l4.2-4.2c0,0,0.1-0.1,0.2-0.1c0.1,0,0.2,0,0.3,0c0.1,0,0.2,0,0.3,0.1
		s0.3,0.1,0.4,0.3l1.7,1.7l1.7,1.7l1.7,1.7l1.7,1.7c0.1,0.1,0.2,0.3,0.3,0.4c0.1,0.1,0.1,0.2,0.1,0.3C98.9,10.2,98.9,10.3,98.9,10.4z
		 M82.1,70.6c0,1.4-1.1,2.5-2.9,2.7c0.3-1.6,1.1-3.4,2.3-3.4C82,69.9,82.1,70.3,82.1,70.6z M14.2,47.1c-0.1-0.1-0.1-0.2-0.1-0.3
		c0-0.2,0.1-0.5,0.2-0.8c0.7,0.2,1.7,0.3,3.1,0.3h3.9c0.2,0,0.3,0,0.4,0.1c0.1,0.1,0.1,0.2,0.1,0.3c0,0.3-0.1,0.6-0.3,0.8
		c-0.7-0.3-1.6-0.4-2.7-0.4h-0.2c0,0.5-0.1,1.4-0.1,2.7c0,2.4,0,3.8,0.1,4.4h0.9c0.1,0.1,0.1,0.2,0.1,0.4c0,0.1,0,0.2-0.1,0.2
		c0,0-0.1,0.1-0.2,0.1h-3.1c-0.1-0.1-0.1-0.3-0.1-0.4c0-0.1,0-0.2,0.1-0.2c0,0,0.1-0.1,0.2-0.1h0.7c0-0.6,0.1-2.1,0.1-4.5
		c0-1.3,0-2.2-0.1-2.6c-1.5,0.1-2.3,0.1-2.5,0.1C14.4,47.2,14.3,47.2,14.2,47.1z M12.3,54.2h0.3c-0.1-0.4-0.3-1.1-0.6-2.2H9.2
		c-0.3,1.1-0.5,1.8-0.5,2.2h0.6c0.1,0.1,0.1,0.2,0.1,0.4c0,0.1,0,0.2-0.1,0.2c0,0-0.1,0.1-0.2,0.1H6.7c-0.1-0.1-0.1-0.3-0.1-0.4
		c0-0.1,0-0.2,0.1-0.2c0,0,0.1-0.1,0.2-0.1h0.4c0.3-0.8,0.7-2.1,1.4-4.1c0.6-2,1-3.1,1.2-3.4c0.2-0.3,0.4-0.5,0.8-0.5
		c0.5,0,0.7,0,0.8,0.1c0.1,0,0.5,1.2,1.3,3.5c0.8,2.3,1.3,3.8,1.6,4.5h0.6c0.1,0.1,0.1,0.2,0.1,0.4c0,0.1,0,0.2-0.1,0.2
		c0,0-0.1,0.1-0.2,0.1h-2.6C12,54.7,12,54.6,12,54.5c0-0.1,0-0.2,0.1-0.2C12.1,54.2,12.2,54.2,12.3,54.2z M11.8,51.3
		c-0.8-2.4-1.2-3.6-1.2-3.6c-0.1,0-0.4,1.2-1.1,3.6H11.8z M3.5,47.1c1.4,0,2.5,0.2,3.3,0.5C7,47.3,7,47,7,46.8c0-0.2,0-0.3-0.1-0.4
		c-0.1-0.1-0.3-0.1-0.5-0.1H1c-0.1,0-0.2,0-0.2,0.1c0,0-0.1,0.1-0.1,0.2c0,0.1,0,0.3,0.1,0.4h0.7c0,0.6,0,1.5,0,2.8
		c0,2.4,0,3.9,0,4.5H1c-0.1,0-0.2,0-0.2,0.1c0,0-0.1,0.1-0.1,0.2c0,0.1,0,0.3,0.1,0.4h3c0.1,0,0.2,0,0.2-0.1c0,0,0.1-0.1,0.1-0.2
		c0-0.1,0-0.2-0.1-0.4H3c0-0.5,0-1.6,0-3.3h2.9c0.1,0,0.2,0,0.2-0.1c0,0,0.1-0.1,0.1-0.2c0-0.2,0-0.4-0.1-0.5H2.9c0-1.5,0-2.5,0-3
		H3.5z M41.6,54.2c-0.1,0-0.2,0-0.2,0.1c0,0-0.1,0.1-0.1,0.2c0,0.1,0,0.3,0.1,0.4l5.5,0c0.4,0,0.6,0,0.7-0.1c0.1-0.1,0.2-0.2,0.2-0.4
		c0-0.2-0.1-0.5-0.2-0.7c-0.8,0.3-1.8,0.4-3.2,0.4h-0.9c0-0.4,0-1.5,0-3.3h3.1c0.1,0,0.2,0,0.2-0.1c0,0,0.1-0.1,0.1-0.2
		c0-0.2,0-0.4-0.1-0.5h-3.3c0-1.4,0-2.4,0-2.8h0.5c1.4,0,2.5,0.2,3.3,0.5c0.2-0.3,0.2-0.5,0.2-0.8c0-0.2,0-0.3-0.1-0.4
		c-0.1-0.1-0.3-0.1-0.5-0.1h-5.4c-0.1,0-0.2,0-0.2,0.1c0,0-0.1,0.1-0.1,0.2c0,0.1,0,0.3,0.1,0.4H42c0,0.6,0,1.5,0,2.8
		c0,2.4,0,3.9,0,4.5H41.6z M49.1,54.2c-0.1,0-0.2,0-0.2,0.1c0,0-0.1,0.1-0.1,0.2c0,0.1,0,0.3,0.1,0.4l5.5,0c0.4,0,0.6,0,0.7-0.1
		c0.1-0.1,0.2-0.2,0.2-0.4c0-0.2-0.1-0.5-0.2-0.7c-0.8,0.3-1.8,0.4-3.2,0.4H51c0-0.4,0-1.5,0-3.3h3.1c0.1,0,0.2,0,0.2-0.1
		c0,0,0.1-0.1,0.1-0.2c0-0.2,0-0.4-0.1-0.5H51c0-1.4,0-2.4,0-2.8h0.5c1.4,0,2.5,0.2,3.3,0.5c0.2-0.3,0.2-0.5,0.2-0.8
		c0-0.2,0-0.3-0.1-0.4c-0.1-0.1-0.3-0.1-0.5-0.1h-5.4c-0.1,0-0.2,0-0.2,0.1c0,0-0.1,0.1-0.1,0.2c0,0.1,0,0.3,0.1,0.4h0.7
		c0,0.6,0,1.5,0,2.8c0,2.4,0,3.9,0,4.5H49.1z M35.9,51.3c-0.3,0-0.5,0-0.8,0.1c0,1.4,0,2.4,0.1,2.9h0.9c0.1,0.1,0.1,0.2,0.1,0.4
		c0,0.1,0,0.2-0.1,0.2c0,0-0.1,0.1-0.2,0.1h-3c-0.1-0.1-0.1-0.3-0.1-0.4c0-0.1,0-0.2,0.1-0.2c0,0,0.1-0.1,0.2-0.1h0.6
		c0-0.6,0.1-2.1,0.1-4.5c0-1.3,0-2.2-0.1-2.8H33c-0.1-0.1-0.1-0.3-0.1-0.4c0-0.1,0-0.2,0.1-0.2c0,0,0.1-0.1,0.2-0.1h2.7
		c1.3,0,2.2,0.2,2.7,0.5c0.5,0.4,0.8,0.9,0.8,1.7c0,1.2-0.7,2-2.1,2.4c0.4,0.1,0.7,0.3,1,0.7c0.2,0.3,0.5,0.8,0.8,1.4
		c0.3,0.6,0.5,1,0.6,1.1c0.2,0.1,0.4,0.2,0.7,0.2c0.1,0.3,0.1,0.5,0,0.6C40.3,54.9,40,55,39.6,55c-0.5,0-0.9-0.1-1.1-0.2
		c-0.2-0.1-0.4-0.6-0.7-1.4c-0.2-0.8-0.5-1.4-0.8-1.7C36.8,51.4,36.4,51.3,35.9,51.3z M35.7,50.5c0.7,0,1.3-0.1,1.7-0.4
		c0.4-0.3,0.6-0.6,0.6-1.1c0-0.6-0.2-1-0.5-1.3c-0.3-0.3-0.8-0.4-1.5-0.4c-0.3,0-0.5,0-0.7,0.1c0,0.4-0.1,1.2-0.1,2.5v0.6H35.7z
		 M28.6,47.1c1.4,0,2.5,0.2,3.3,0.5c0.2-0.3,0.2-0.5,0.2-0.8c0-0.2,0-0.3-0.1-0.4c-0.1-0.1-0.3-0.1-0.5-0.1h-5.4
		c-0.1,0-0.2,0-0.2,0.1c0,0-0.1,0.1-0.1,0.2c0,0.1,0,0.3,0.1,0.4h0.7c0,0.6,0,1.5,0,2.8c0,2.4,0,3.9,0,4.5h-0.5c-0.1,0-0.2,0-0.2,0.1
		c0,0-0.1,0.1-0.1,0.2c0,0.1,0,0.3,0.1,0.4h3c0.1,0,0.2,0,0.2-0.1c0,0,0.1-0.1,0.1-0.2c0-0.1,0-0.2-0.1-0.4h-1c0-0.5,0-1.6,0-3.3h2.9
		c0.1,0,0.2,0,0.2-0.1c0,0,0.1-0.1,0.1-0.2c0-0.2,0-0.4-0.1-0.5H28c0-1.5,0-2.5,0-3H28.6z M50.8,28.9c0,1,0.2,1.8,0.7,2.2
		c0.5,0.5,1.2,0.7,2.3,0.7c1.1,0,2-0.3,2.6-1c0.6-0.7,0.9-1.5,0.9-2.6c0-1-0.2-1.8-0.7-2.3c-0.5-0.5-1.2-0.7-2.3-0.7
		c-1.2,0-2,0.3-2.6,1C51.1,27,50.8,27.8,50.8,28.9z M53.1,26.9c0.2-0.3,0.5-0.5,1-0.5c0.4,0,0.7,0.2,0.9,0.5c0.2,0.3,0.3,0.9,0.3,1.9
		c0,0.7-0.1,1.2-0.3,1.5c-0.2,0.3-0.5,0.5-0.9,0.5c-0.4,0-0.8-0.2-1-0.5c-0.2-0.3-0.3-0.9-0.3-1.8C52.8,27.8,52.9,27.3,53.1,26.9z
		 M43.9,26.3c1.1,0,2-0.3,2.6-1c0.6-0.7,0.9-1.5,0.9-2.6c0-1-0.2-1.8-0.7-2.3c-0.5-0.5-1.2-0.7-2.3-0.7c-1.2,0-2,0.3-2.6,1
		c-0.6,0.7-0.9,1.5-0.9,2.6c0,1,0.2,1.8,0.7,2.2C42,26.1,42.8,26.3,43.9,26.3z M43.2,21.4c0.2-0.3,0.5-0.5,1-0.5
		c0.4,0,0.7,0.2,0.9,0.5c0.2,0.3,0.3,0.9,0.3,1.9c0,0.7-0.1,1.2-0.3,1.5c-0.2,0.3-0.5,0.5-0.9,0.5c-0.4,0-0.8-0.2-1-0.5
		c-0.2-0.3-0.3-0.9-0.3-1.8C42.9,22.2,43,21.7,43.2,21.4z M45.5,32.2l6.4-13.8c0.2,0,0.5,0.1,0.6,0.2c0.2,0.1,0.3,0.2,0.3,0.3
		c0,0.1,0,0.2-0.1,0.4l-6,12.9l-0.4,1c-0.2,0-0.4-0.1-0.7-0.2c-0.2-0.1-0.3-0.2-0.3-0.3C45.3,32.6,45.4,32.5,45.5,32.2z M20.9,22.9
		c-0.6-1-1-1.9-1-2.9c0-0.6,0.2-1.1,0.7-1.4c0.5-0.3,1.2-0.4,2.2-0.4h14.3c0.6,0,1.1,0.1,1.4,0.3c0.3,0.2,0.4,0.5,0.4,1
		c0,0.9-0.2,1.8-0.7,2.8c-0.5,1-2,3.6-4.5,7.8c-2.5,4.2-3.6,8.2-3.4,12.2h-3.6c-1.6,0-2.5-0.8-2.5-2.3c0-1.5,0.6-3.4,1.7-5.6
		c1.1-2.2,2.4-4.7,4-7.6c1.6-2.8,2.4-4.7,2.5-5.7h-1.9C26.8,21.2,23.6,21.8,20.9,22.9z M8.9,33c1.7,0,3.3-0.3,4.9-0.8
		c-0.2,2.6-0.8,4.3-1.6,5.2c-1.2,1.3-3,1.9-5.5,1.9C5,39.3,3.5,39,2,38.4c-0.6,0.8-0.9,1.6-0.9,2.5c0,0.7,0.2,1.2,0.7,1.4
		c0.5,0.3,1.8,0.4,4,0.4c5,0,8.6-1.2,10.9-3.6C18.9,36.7,20,33,20,27.9c0-3.6-0.7-6.1-2.1-7.7c-1.4-1.6-3.7-2.3-7-2.3
		c-3.1,0-5.6,0.8-7.4,2.4c-1.8,1.6-2.7,3.7-2.7,6.3c0,2.1,0.6,3.7,1.8,4.8C3.8,32.5,5.9,33,8.9,33z M7.5,22.2
		c0.4-0.6,1.2-0.9,2.3-0.9c1.4,0,2.5,0.6,3.1,1.8c0.7,1.2,1,3,1,5.4c0,0.4,0,0.7,0,1c-2.7,0.2-4.5,0-5.6-0.7c-1-0.7-1.5-2-1.5-3.9
		C6.8,23.7,7.1,22.8,7.5,22.2z"></path>
</svg>