<svg xmlns="http://www.w3.org/2000/svg" xmlns:xlink="http://www.w3.org/1999/xlink" viewBox="0 0 1010.02 712.25" preserveAspectRatio="xMinYMin">
  <g>
    <path fill="#ffffff" d="M93.58,612.18l-29.62,71.04H51.06l-29.57-71.04H69.7l-4.95,11.84H38.87l18.63,44.81l23.63-56.65H93.58z
		 M122.05,612.18l29.62,71.04h-12.44l-38.07-21.98l-9.14,21.98H79.59l29.57-71.04H122.05z M131.74,665.24l-16.14-38.67l-9.84,23.68
		L131.74,665.24z M173.5,612.18v59.2h40.46l-4.95,11.84h-47.36v-71.04H173.5z M282.56,612.13l-30.57,33.47l44.56,56.85l-19.58-5.8
		l-33.07-42.21l-8.09,8.89v19.83h-11.84v-71.04h11.84v33.62l30.72-33.62H282.56z M361.63,612.18l-28.17,46.06v24.98h-11.84v-24.98
		l-28.12-46.06h13.89l20.18,33.07l20.18-33.07H361.63z M378.72,623.92h-7.09l4.95-11.84h31.77c6.93,0,12.86,2.46,17.78,7.39
		c4.9,4.9,7.34,10.82,7.34,17.79c0,5.26-1.52,10.06-4.55,14.39c-2.93,4.23-6.79,7.26-11.59,9.09l32.97,41.86l-19.63-5.79
		l-27.13-34.42h-12.99v20.73h-11.84V623.92z M390.56,650.55h17.78c3.66,0,6.79-1.3,9.39-3.9c2.6-2.6,3.9-5.73,3.9-9.39
		c0-3.7-1.3-6.84-3.9-9.44c-2.6-2.6-5.73-3.9-9.39-3.9h-17.78V650.55z M446.61,612.18h11.84v71.04h-11.84V612.18z M528.49,612.18
		l-3.5,11.84h-37.62v17.78h23.08l-3.5,11.84h-19.58v17.73h41.11l-3.5,11.84h-49.46v-59.2h-7.09l4.94-11.84H528.49z M623.9,612.18
		l-3.5,11.84h-37.62v17.78h23.08l-3.5,11.84h-19.58v29.57h-11.84v-59.2h-7.09l4.95-11.84H623.9z M633.89,612.18h11.84v71.04h-11.84
		V612.18z M711.97,612.18v11.84h-22.23v59.2H677.9v-59.2h-22.18v-11.84H711.97z M781.16,612.18v71.04h-11.09l-36.27-49.86v49.86
		h-11.84v-71.04h11.09l36.27,49.86v-38.02h-7.09l4.9-11.84H781.16z M851.2,612.18l-3.5,11.84h-37.62v17.78h23.08l-3.5,11.84h-19.58
		v17.73h41.11l-3.5,11.84h-49.46v-59.2h-7.09l4.95-11.84H851.2z M914.19,649.75c3.53,3.2,5.38,7.28,5.54,12.24
		c0.17,4.96-1.4,9.24-4.7,12.84c-3.63,3.93-8.69,6.49-15.19,7.69c-3.96,0.7-7.98,0.87-12.04,0.5c-7.73-0.7-14.32-3.13-19.78-7.29
		c-1.97-1.5-3.61-3.15-4.95-4.95l9.19-7.89c0.67,1.53,2.23,3.06,4.69,4.6c3.36,2.1,7.34,3.35,11.94,3.75
		c8.09,0.73,13.82-0.72,17.18-4.35c1.1-1.2,1.63-2.65,1.6-4.35c0-1.73-0.57-3.1-1.7-4.1c-2.83-2.56-8.01-4.2-15.54-4.9
		c-6.99-0.63-12.8-2.13-17.43-4.5c-7.89-4-11.52-9.91-10.89-17.73c0.43-5.03,2.65-9.19,6.64-12.49c3.26-2.73,7.51-4.65,12.74-5.74
		c4.36-0.9,8.67-1.16,12.94-0.8c7.73,0.73,14.32,3.18,19.78,7.34c0.9,0.67,1.73,1.38,2.5,2.15l-8.39,8.39
		c-0.13-0.13-0.27-0.25-0.4-0.35c-2-1.83-4.6-3.26-7.79-4.3c-6.49-2.16-12.92-2.15-19.28,0.05c-1.9,0.67-3.38,1.47-4.45,2.4
		c-1.47,1.27-2.23,2.71-2.3,4.35c-0.07,1.77,0.68,3.36,2.25,4.8c1.13,1.03,2.73,1.9,4.8,2.6c2.3,0.77,6.84,1.58,13.64,2.45
		C903.37,643.25,909.83,645.79,914.19,649.75z M982.98,649.75c3.53,3.2,5.38,7.28,5.54,12.24c0.17,4.96-1.4,9.24-4.7,12.84
		c-3.63,3.93-8.69,6.49-15.19,7.69c-3.96,0.7-7.98,0.87-12.04,0.5c-7.73-0.7-14.32-3.13-19.78-7.29c-1.97-1.5-3.61-3.15-4.95-4.95
		l9.19-7.89c0.67,1.53,2.23,3.06,4.69,4.6c3.36,2.1,7.34,3.35,11.94,3.75c8.09,0.73,13.82-0.72,17.18-4.35
		c1.1-1.2,1.63-2.65,1.6-4.35c0-1.73-0.57-3.1-1.7-4.1c-2.83-2.56-8.01-4.2-15.54-4.9c-6.99-0.63-12.8-2.13-17.43-4.5
		c-7.89-4-11.52-9.91-10.89-17.73c0.43-5.03,2.65-9.19,6.64-12.49c3.26-2.73,7.51-4.65,12.74-5.74c4.36-0.9,8.67-1.16,12.94-0.8
		c7.73,0.73,14.32,3.18,19.78,7.34c0.9,0.67,1.73,1.38,2.5,2.15l-8.39,8.39c-0.13-0.13-0.27-0.25-0.4-0.35
		c-2-1.83-4.6-3.26-7.79-4.3c-6.49-2.16-12.92-2.15-19.28,0.05c-1.9,0.67-3.38,1.47-4.45,2.4c-1.47,1.27-2.23,2.71-2.3,4.35
		c-0.07,1.77,0.68,3.36,2.25,4.8c1.13,1.03,2.73,1.9,4.8,2.6c2.3,0.77,6.84,1.58,13.64,2.45
		C972.15,643.25,978.61,645.79,982.98,649.75z">
    </path>
    <g>
      <g>
        <path fill="#ffffff" d="M498.61,600.77C298.64,483.62,305.68,512.1,290.55,318.62c-4.96-63.53,3-44.91-52.88-69.75
				C67.33,173.13,22.98,56.78,13.06,11.44c94.86,97.58,198.81,158.24,284.45,200.36c66.7,32.81,53.2,13.62,52.93,89.21
				c-0.16,42.94,1.26,101.07,13.99,146.8C386.16,525.87,468.27,567.16,498.61,600.77z M282.64,387.87l-4.19-0.82
				c-50.79-10-142.95-49.22-182.18-82.67c-5.97-5.09-11.71-10.8-17.22-17.03c13.03,35.94,52.01,106.31,92.04,134.42
				c27.12,19.04,91.24,39.81,126.13,43.75c-5.12-13.53-8.1-27.84-10.31-42.28C285.26,412.49,283.77,399.02,282.64,387.87z
				 M772.35,248.87c170.34-75.74,214.7-192.09,224.62-237.43c-94.86,97.58-198.82,158.24-284.45,200.36
				c-66.69,32.81-53.2,13.62-52.92,89.21c0.16,42.94-1.26,101.07-13.99,146.8c-21.74,78.06-103.85,119.35-134.19,152.96
				c199.97-117.16,192.93-88.68,208.06-282.15C724.44,255.09,716.47,273.71,772.35,248.87z M913.76,304.38
				c-39.24,33.45-131.4,72.66-182.19,82.67l-4.19,0.82c-1.13,11.14-2.61,24.62-4.27,35.37c-2.22,14.45-5.19,28.75-10.3,42.28
				c34.88-3.94,99-24.7,126.12-43.75c40.03-28.11,79.01-98.48,92.04-134.42C925.47,293.58,919.73,299.3,913.76,304.38z">
        </path>
        <path fill="#9E2626" d="M6.43,92.48c49.96,64.99,162.2,141.8,216.42,164.45c3.1,1.44,6.22,2.86,9.34,4.25
				c10.69,4.75,21.3,8.7,32.18,12.86c1.36,0.52,7.79,2.97,8.7,4.09c1.98,2.61,3.71,37.35,4.03,41.53
				c1.38,17.57,2.56,35.53,4.09,53.43c-48.62-9.57-139.15-48.36-175.71-79.53C49.8,246.09,17.57,142.41,6.43,92.48z M787.17,256.93
				c-3.1,1.44-6.22,2.86-9.34,4.25c-10.68,4.75-21.3,8.7-32.18,12.86c-1.36,0.52-7.8,2.97-8.71,4.09
				c-1.98,2.61-3.7,37.35-4.04,41.53c-1.37,17.57-2.55,35.53-4.08,53.43c48.62-9.57,139.14-48.36,175.7-79.53
				c55.69-47.47,87.92-151.16,99.05-201.09C953.63,157.47,841.39,234.28,787.17,256.93z">
        </path>
        <path fill="#ffffff" d="M573.01,528.95c26.56-23.86,50.03-51.53,59.8-86.59c12.28-44.11,13.65-97.45,13.49-143.05
				c-0.05-13.85-0.87-27.47-1.23-41.27c-0.25-9.2-0.14-18.7,4.74-26.86c4.81-8.04,12.86-12.53,21.02-16.53
				c10.76-5.28,21.77-10.07,32.61-15.28H505.51H307.58c10.84,5.21,21.84,10.01,32.62,15.28c8.15,4,16.21,8.49,21.02,16.53
				c4.88,8.15,4.98,17.65,4.74,26.86c-0.36,13.8-1.18,27.41-1.23,41.27c-0.16,45.6,1.21,98.94,13.49,143.05
				c9.76,35.06,33.24,62.73,59.8,86.59c12.56,11.28,25.8,21.66,39,32.18c9.57,7.64,19.79,15.72,28.5,24.58
				c8.71-8.86,18.94-16.94,28.51-24.58C547.21,550.6,560.44,540.22,573.01,528.95z M505.51,532.28c-1.12-0.9-2.23-1.78-3.35-2.67
				c-12.55-10.02-25.25-19.95-37.2-30.68c-20.39-18.31-40.37-40.37-47.89-67.4c-11.34-40.72-12.16-89.94-12.01-132.08
				c0.05-13.45,0.86-26.91,1.22-40.35c0.18-6.71,0.04-13.15-0.71-19.4h99.95h99.95c-0.75,6.26-0.89,12.7-0.71,19.4
				c0.35,13.44,1.16,26.9,1.21,40.35c0.15,42.14-0.67,91.36-12.01,132.08c-7.52,27.03-27.5,49.09-47.89,67.4
				c-11.95,10.73-24.65,20.66-37.21,30.68C507.74,530.5,506.62,531.39,505.51,532.28z">
        </path>
      </g>
      <path fill="#9E2626" d="M601.95,268.53c-5.97,2.87-17.17,20.81-18.5,26.42c-1.2,5.09-1.23,16.45-1.09,21.52
			c0.2,7.6,0.65,15.1,0.68,22.73c0.09,25.11-0.66,54.49-7.43,78.78c-5.38,19.31-18.3,34.55-32.93,47.69
			c-6.92,6.21-14.21,11.93-21.48,17.72c-5.27,4.21-10.9,8.66-15.7,13.54c-4.8-4.88-10.43-9.33-15.7-13.54
			c-7.27-5.8-14.56-11.51-21.48-17.72c-14.63-13.14-27.55-28.38-32.93-47.69c-6.76-24.29-7.52-53.66-7.43-78.78
			c0.03-7.63,0.48-15.13,0.68-22.73c0.14-5.07,0.07-18.88-1.58-23.5c-1.74-4.86-11.37-20.91-17.34-23.78l40.95,14.97
			c0,0-0.47,48.71-0.5,55.12c-0.08,23.21,0.37,50.32,6.61,72.74c4.14,14.88,15.15,27.03,26.37,37.12
			c6.58,5.91,13.57,11.38,20.49,16.9c0.62,0.49,1.23,0.98,1.85,1.47c0.61-0.49,1.23-0.98,1.84-1.47
			c6.91-5.52,13.91-10.98,20.49-16.9c11.23-10.08,22.23-22.23,26.37-37.12c6.24-22.42,6.69-49.53,6.61-72.74
			c-0.03-7.41-1.15-55.12-1.15-55.12L601.95,268.53z">
      </path>
    </g>
  </g>
  <g style="display:none">
    <path style="display:inline" fill="#F2F2F2" d="M93.58,612.18l-29.62,71.04H51.06l-29.57-71.04H69.7l-4.95,11.84H38.87l18.63,44.81l23.63-56.65H93.58z
		 M122.05,612.18l29.62,71.04h-12.44l-38.07-21.98l-9.14,21.98H79.59l29.57-71.04H122.05z M131.74,665.24l-16.14-38.67l-9.84,23.68
		L131.74,665.24z M173.5,612.18v59.2h40.46l-4.95,11.84h-47.36v-71.04H173.5z M282.56,612.13l-30.57,33.47l44.56,56.85l-19.58-5.8
		l-33.07-42.21l-8.09,8.89v19.83h-11.84v-71.04h11.84v33.62l30.72-33.62H282.56z M361.63,612.18l-28.17,46.06v24.98h-11.84v-24.98
		l-28.12-46.06h13.89l20.18,33.07l20.18-33.07H361.63z M378.72,623.92h-7.09l4.95-11.84h31.77c6.93,0,12.86,2.46,17.78,7.39
		c4.9,4.9,7.34,10.82,7.34,17.79c0,5.26-1.52,10.06-4.55,14.39c-2.93,4.23-6.79,7.26-11.59,9.09l32.97,41.86l-19.63-5.79
		l-27.13-34.42h-12.99v20.73h-11.84V623.92z M390.56,650.55h17.78c3.66,0,6.79-1.3,9.39-3.9c2.6-2.6,3.9-5.73,3.9-9.39
		c0-3.7-1.3-6.84-3.9-9.44c-2.6-2.6-5.73-3.9-9.39-3.9h-17.78V650.55z M446.61,612.18h11.84v71.04h-11.84V612.18z M528.49,612.18
		l-3.5,11.84h-37.62v17.78h23.08l-3.5,11.84h-19.58v17.73h41.11l-3.5,11.84h-49.46v-59.2h-7.09l4.94-11.84H528.49z M623.9,612.18
		l-3.5,11.84h-37.62v17.78h23.08l-3.5,11.84h-19.58v29.57h-11.84v-59.2h-7.09l4.95-11.84H623.9z M633.89,612.18h11.84v71.04h-11.84
		V612.18z M711.97,612.18v11.84h-22.23v59.2H677.9v-59.2h-22.18v-11.84H711.97z M781.16,612.18v71.04h-11.09l-36.27-49.86v49.86
		h-11.84v-71.04h11.09l36.27,49.86v-38.02h-7.09l4.9-11.84H781.16z M851.2,612.18l-3.5,11.84h-37.62v17.78h23.08l-3.5,11.84h-19.58
		v17.73h41.11l-3.5,11.84h-49.46v-59.2h-7.09l4.95-11.84H851.2z M914.19,649.75c3.53,3.2,5.38,7.28,5.54,12.24
		c0.17,4.96-1.4,9.24-4.7,12.84c-3.63,3.93-8.69,6.49-15.19,7.69c-3.96,0.7-7.98,0.87-12.04,0.5c-7.73-0.7-14.32-3.13-19.78-7.29
		c-1.97-1.5-3.61-3.15-4.95-4.95l9.19-7.89c0.67,1.53,2.23,3.06,4.69,4.6c3.36,2.1,7.34,3.35,11.94,3.75
		c8.09,0.73,13.82-0.72,17.18-4.35c1.1-1.2,1.63-2.65,1.6-4.35c0-1.73-0.57-3.1-1.7-4.1c-2.83-2.56-8.01-4.2-15.54-4.9
		c-6.99-0.63-12.8-2.13-17.43-4.5c-7.89-4-11.52-9.91-10.89-17.73c0.43-5.03,2.65-9.19,6.64-12.49c3.26-2.73,7.51-4.65,12.74-5.74
		c4.36-0.9,8.67-1.16,12.94-0.8c7.73,0.73,14.32,3.18,19.78,7.34c0.9,0.67,1.73,1.38,2.5,2.15l-8.39,8.39
		c-0.13-0.13-0.27-0.25-0.4-0.35c-2-1.83-4.6-3.26-7.79-4.3c-6.49-2.16-12.92-2.15-19.28,0.05c-1.9,0.67-3.38,1.47-4.45,2.4
		c-1.47,1.27-2.23,2.71-2.3,4.35c-0.07,1.77,0.68,3.36,2.25,4.8c1.13,1.03,2.73,1.9,4.8,2.6c2.3,0.77,6.84,1.58,13.64,2.45
		C903.37,643.25,909.83,645.79,914.19,649.75z M982.98,649.75c3.53,3.2,5.38,7.28,5.54,12.24c0.17,4.96-1.4,9.24-4.7,12.84
		c-3.63,3.93-8.69,6.49-15.19,7.69c-3.96,0.7-7.98,0.87-12.04,0.5c-7.73-0.7-14.32-3.13-19.78-7.29c-1.97-1.5-3.61-3.15-4.95-4.95
		l9.19-7.89c0.67,1.53,2.23,3.06,4.69,4.6c3.36,2.1,7.34,3.35,11.94,3.75c8.09,0.73,13.82-0.72,17.18-4.35
		c1.1-1.2,1.63-2.65,1.6-4.35c0-1.73-0.57-3.1-1.7-4.1c-2.83-2.56-8.01-4.2-15.54-4.9c-6.99-0.63-12.8-2.13-17.43-4.5
		c-7.89-4-11.52-9.91-10.89-17.73c0.43-5.03,2.65-9.19,6.64-12.49c3.26-2.73,7.51-4.65,12.74-5.74c4.36-0.9,8.67-1.16,12.94-0.8
		c7.73,0.73,14.32,3.18,19.78,7.34c0.9,0.67,1.73,1.38,2.5,2.15l-8.39,8.39c-0.13-0.13-0.27-0.25-0.4-0.35
		c-2-1.83-4.6-3.26-7.79-4.3c-6.49-2.16-12.92-2.15-19.28,0.05c-1.9,0.67-3.38,1.47-4.45,2.4c-1.47,1.27-2.23,2.71-2.3,4.35
		c-0.07,1.77,0.68,3.36,2.25,4.8c1.13,1.03,2.73,1.9,4.8,2.6c2.3,0.77,6.84,1.58,13.64,2.45
		C972.15,643.25,978.61,645.79,982.98,649.75z">
    </path>
    <g style="display:inline">
      <g>
        <path fill="#F2F2F2" d="M498.61,600.77C298.64,483.62,305.68,512.1,290.55,318.62c-4.96-63.53,3-44.91-52.88-69.75
				C67.33,173.13,22.98,56.78,13.06,11.44c94.86,97.58,198.81,158.24,284.45,200.36c66.7,32.81,53.2,13.62,52.93,89.21
				c-0.16,42.94,1.26,101.07,13.99,146.8C386.16,525.87,468.27,567.16,498.61,600.77z M282.64,387.87l-4.19-0.82
				c-50.79-10-142.95-49.22-182.18-82.67c-5.97-5.09-11.71-10.8-17.22-17.03c13.03,35.94,52.01,106.31,92.04,134.42
				c27.12,19.04,91.24,39.81,126.13,43.75c-5.12-13.53-8.1-27.84-10.31-42.28C285.26,412.49,283.77,399.02,282.64,387.87z
				 M772.35,248.87c170.34-75.74,214.7-192.09,224.62-237.43c-94.86,97.58-198.82,158.24-284.45,200.36
				c-66.69,32.81-53.2,13.62-52.92,89.21c0.16,42.94-1.26,101.07-13.99,146.8c-21.74,78.06-103.85,119.35-134.19,152.96
				c199.97-117.16,192.93-88.68,208.06-282.15C724.44,255.09,716.47,273.71,772.35,248.87z M913.76,304.38
				c-39.24,33.45-131.4,72.66-182.19,82.67l-4.19,0.82c-1.13,11.14-2.61,24.62-4.27,35.37c-2.22,14.45-5.19,28.75-10.3,42.28
				c34.88-3.94,99-24.7,126.12-43.75c40.03-28.11,79.01-98.48,92.04-134.42C925.47,293.58,919.73,299.3,913.76,304.38z">
        </path>
        <path fill="#9E2626" d="M6.43,92.48c49.96,64.99,162.2,141.8,216.42,164.45c3.1,1.44,6.22,2.86,9.34,4.25
				c10.69,4.75,21.3,8.7,32.18,12.86c1.36,0.52,7.79,2.97,8.7,4.09c1.98,2.61,3.71,37.35,4.03,41.53
				c1.38,17.57,2.56,35.53,4.09,53.43c-48.62-9.57-139.15-48.36-175.71-79.53C49.8,246.09,17.57,142.41,6.43,92.48z M787.17,256.93
				c-3.1,1.44-6.22,2.86-9.34,4.25c-10.68,4.75-21.3,8.7-32.18,12.86c-1.36,0.52-7.8,2.97-8.71,4.09
				c-1.98,2.61-3.7,37.35-4.04,41.53c-1.37,17.57-2.55,35.53-4.08,53.43c48.62-9.57,139.14-48.36,175.7-79.53
				c55.69-47.47,87.92-151.16,99.05-201.09C953.63,157.47,841.39,234.28,787.17,256.93z">
        </path>
        <path fill="#F2F2F2" d="M573.01,528.95c26.56-23.86,50.03-51.53,59.8-86.59c12.28-44.11,13.65-97.45,13.49-143.05
				c-0.05-13.85-0.87-27.47-1.23-41.27c-0.25-9.2-0.14-18.7,4.74-26.86c4.81-8.04,12.86-12.53,21.02-16.53
				c10.76-5.28,21.77-10.07,32.61-15.28H505.51H307.58c10.84,5.21,21.84,10.01,32.62,15.28c8.15,4,16.21,8.49,21.02,16.53
				c4.88,8.15,4.98,17.65,4.74,26.86c-0.36,13.8-1.18,27.41-1.23,41.27c-0.16,45.6,1.21,98.94,13.49,143.05
				c9.76,35.06,33.24,62.73,59.8,86.59c12.56,11.28,25.8,21.66,39,32.18c9.57,7.64,19.79,15.72,28.5,24.58
				c8.71-8.86,18.94-16.94,28.51-24.58C547.21,550.6,560.44,540.22,573.01,528.95z M505.51,532.28c-1.12-0.9-2.23-1.78-3.35-2.67
				c-12.55-10.02-25.25-19.95-37.2-30.68c-20.39-18.31-40.37-40.37-47.89-67.4c-11.34-40.72-12.16-89.94-12.01-132.08
				c0.05-13.45,0.86-26.91,1.22-40.35c0.18-6.71,0.04-13.15-0.71-19.4h99.95h99.95c-0.75,6.26-0.89,12.7-0.71,19.4
				c0.35,13.44,1.16,26.9,1.21,40.35c0.15,42.14-0.67,91.36-12.01,132.08c-7.52,27.03-27.5,49.09-47.89,67.4
				c-11.95,10.73-24.65,20.66-37.21,30.68C507.74,530.5,506.62,531.39,505.51,532.28z">
        </path>
      </g>
      <path fill="#9E2626" d="M601.95,268.53c-5.97,2.87-17.17,20.81-18.5,26.42c-1.2,5.09-1.23,16.45-1.09,21.52
			c0.2,7.6,0.65,15.1,0.68,22.73c0.09,25.11-0.66,54.49-7.43,78.78c-5.38,19.31-18.3,34.55-32.93,47.69
			c-6.92,6.21-14.21,11.93-21.48,17.72c-5.27,4.21-10.9,8.66-15.7,13.54c-4.8-4.88-10.43-9.33-15.7-13.54
			c-7.27-5.8-14.56-11.51-21.48-17.72c-14.63-13.14-27.55-28.38-32.93-47.69c-6.76-24.29-7.52-53.66-7.43-78.78
			c0.03-7.63,0.48-15.13,0.68-22.73c0.14-5.07,0.07-18.88-1.58-23.5c-1.74-4.86-11.37-20.91-17.34-23.78l40.95,14.97
			c0,0-0.47,48.71-0.5,55.12c-0.08,23.21,0.37,50.32,6.61,72.74c4.14,14.88,15.15,27.03,26.37,37.12
			c6.58,5.91,13.57,11.38,20.49,16.9c0.62,0.49,1.23,0.98,1.85,1.47c0.61-0.49,1.23-0.98,1.84-1.47
			c6.91-5.52,13.91-10.98,20.49-16.9c11.23-10.08,22.23-22.23,26.37-37.12c6.24-22.42,6.69-49.53,6.61-72.74
			c-0.03-7.41-1.15-55.12-1.15-55.12L601.95,268.53z">
      </path>
    </g>
  </g>
</svg>