<svg xmlns="http://www.w3.org/2000/svg" width="661" height="428"><path d="M319.367 16.25c-6.025 6.188-14.158 15.028-18.072 19.645l-7.116 8.395 8.885 6.867c4.887 3.777 13.162 10.955 18.388 15.952l9.503 9.084 9.772-9.033c5.375-4.969 13.598-12.036 18.273-15.705 4.675-3.669 8.673-6.833 8.885-7.032C369.057 43.327 333.75 5 331.568 5c-.685 0-6.175 5.063-12.201 11.25m-142.832 15c-12.229 25.831-17.477 50.074-17.515 80.908-.052 41.606 11.223 80.831 32.724 113.842 21.583 33.137 51.032 54.395 83.884 60.553 9.193 1.723 33.453 1.778 36.168.082.965-.603.313-1.878-2.55-4.984-12.967-14.067-22.131-34.965-26.815-61.151-2.713-15.161-2.524-42.705.384-56.188 4.402-20.409 13.058-40.456 25.245-58.467 3.849-5.69 7.975-11.585 9.168-13.099l2.169-2.755-3.948-4.124c-8.169-8.532-26.409-23.395-39.27-31.999-29.862-19.977-65.596-33.802-87.499-33.852L181.861 20l-5.326 11.25M458 21.946C407.404 32.691 351.743 71.517 322.449 116.5c-18.718 28.743-26.12 56.409-23.471 87.73 2.624 31.027 11.08 53.115 25.944 67.77 11.55 11.387 23.854 16 42.678 16 18.658 0 33.717-3.801 50.907-12.851 12.551-6.607 22.338-14.16 33.726-26.024 43.543-45.366 61.944-121.552 45.074-186.625-2.848-10.984-10.54-30.809-14.724-37.949L479.916 20l-6.708.07c-3.689.039-10.533.883-15.208 1.876M84 35.312c0 10.895 1.779 35.453 4.07 56.188 10.469 94.756 38.723 153.628 84.93 176.966 12.708 6.418 30.917 11.553 40.86 11.523l3.64-.011-3.5-2.626c-7.138-5.355-26.708-26.191-33-35.136-20.787-29.55-34.126-64.976-39.053-103.716-.63-4.95-1.135-16.875-1.122-26.5.03-23.345 2.457-40.154 8.844-61.257 1.458-4.816 2.466-8.935 2.241-9.154-.226-.218-14.585-3.166-31.91-6.55-17.325-3.385-32.513-6.402-33.75-6.705-2.183-.534-2.25-.326-2.25 6.978m458.697-.466c-26.832 5.429-32.724 6.912-32.364 8.146.241.829 1.621 5.516 3.066 10.415 12.389 42.007 11.037 88.169-3.898 133.093-4.301 12.938-15.289 36.222-22.012 46.645-10.285 15.944-25.415 33.185-37.687 42.942l-5.302 4.216 7-.636c26.166-2.376 52.938-16.342 70.546-36.801 30.229-35.121 48.255-92.962 54.342-174.366 2.578-34.473 2.693-40.517.768-40.396-.911.058-16.418 3.091-34.459 6.742M72 170.854c-10.802 4.841-28.519 14.558-29.532 16.198-.661 1.069 5.367 11.714 13.581 23.983 24.903 37.198 51.515 57.253 84.201 63.453 10.349 1.963 10.695 1.927 7.12-.738-26.439-19.709-48.892-55.342-60.963-96.75-1.524-5.225-3.026-9.804-3.338-10.176-.313-.371-5.294 1.442-11.069 4.03m504.044 5.982c-12.848 42.245-31.657 72.65-59.044 95.443l-4.5 3.746 4.5-.619c22.072-3.035 45.072-14.664 62.832-31.77 11.268-10.853 25.043-29.167 35.97-47.823l5.088-8.688-7.715-4.522c-6.773-3.971-27.832-14.325-32.282-15.872-1.296-.45-2.232 1.499-4.849 10.105M171.5 294.647c-17.876 2.073-29.816 5.394-41.936 11.664-21.055 10.893-30.749 28.631-24.579 44.974 5.335 14.127 24.071 27.415 46.064 32.668 38.138 9.109 79.963 1.144 100.235-19.089 24.184-24.136 7.611-55.021-35.608-66.358-13.821-3.625-32.279-5.238-44.176-3.859m403.86 1.769c-16.834 3.198-28.643 9.573-32.945 17.784-2.254 4.302-1.821 12.902.848 16.863 6.78 10.06 19.435 13.599 60.237 16.844 18.591 1.479 25.616 4.047 27.744 10.145 1.793 5.138-5.632 11.493-16.744 14.333-20.413 5.216-47.147.436-51.5-9.209l-1.5-3.323-11 .668c-6.05.368-11.15.813-11.334.991-.183.177.529 2.272 1.584 4.655 3.498 7.909 12.647 13.804 28.053 18.077 10.812 2.998 41.861 3.217 53.197.376 25.327-6.348 36.935-19.025 29.953-32.711-4.9-9.606-22.679-15.452-52.953-17.413-26.615-1.724-36-5.183-36-13.269 0-8.305 12.707-13.663 32.5-13.703 14.938-.03 24.586 2.533 29.164 7.746l2.878 3.277 11.193-.383 11.194-.383-1.906-3.735c-3.706-7.265-11.428-12.415-24.171-16.12-9.467-2.752-37.379-3.622-48.492-1.51M8 341.5V387h96v-13H31v-78H8v45.5m256-39.518v5.982l23.75.268 23.75.268.262 39.25.261 39.25H334v-79h47v-12H264v5.982m137.006 26.268c.003 19.418.423 33.753 1.054 36.027 5.52 19.877 54.433 29.959 89.94 18.538 12.336-3.968 19.47-8.897 23.059-15.93 1.807-3.543 1.941-6.118 1.941-37.345V296h-23v33.277c0 28.618-.22 33.592-1.57 35.519-3.646 5.206-19.67 10.212-32.638 10.196-13.498-.016-27.937-3.983-33.03-9.076L424 363.154V296h-23l.006 32.25m-234.355-19.721c-20.791 3.938-36.603 14.62-40.259 27.194-1.394 4.797-1.384 5.791.109 10.929 3.171 10.906 16.182 20.626 34.157 25.516 6.171 1.679 10.826 2.148 21.842 2.202 16.29.08 23.46-1.396 36.126-7.433 33.691-16.061 26.113-46.641-14.126-56.998-10.638-2.738-27.521-3.367-37.849-1.41M61.709 400.25c-1.316 1.788-4.915 6.962-7.996 11.5L48.11 420h2.826c2.055 0 3.555-.955 5.496-3.5 2.599-3.407 2.854-3.5 9.61-3.5 6.828 0 6.976.056 9.199 3.488 1.699 2.622 2.962 3.49 5.092 3.5 1.559.006 2.684-.338 2.5-.765-.183-.427-3.639-5.602-7.68-11.5C70.27 400.596 67.185 397 65.954 397c-1.019 0-2.929 1.462-4.245 3.25M89 408.5V420h2.464c2.43 0 2.467-.132 2.75-9.75l.286-9.75 5.845-.303c6.573-.34 10.655 1.518 10.655 4.851 0 2.487-3.566 3.952-9.624 3.952-2.475 0-4.239.413-3.926.918.312.505 3.496 3.008 7.075 5.562 5.025 3.587 7.223 4.573 9.647 4.332l3.138-.312-5.153-3.5c-2.834-1.925-5.154-3.781-5.155-4.125-.001-.344 1.334-.892 2.967-1.219 3.346-.669 7.031-3.895 7.031-6.156 0-4.645-7.488-7.486-19.75-7.494L89 397v11.5m67 0V420h12c7.333 0 12-.389 12-1 0-.593-3.667-1-9-1h-9v-8h9c5.333 0 9-.407 9-1s-3.667-1-9-1h-9v-8h9c7.333 0 9-.278 9-1.5 0-1.25-2-1.5-12-1.5h-12v11.5m27-10c0 1.167 1.333 1.5 6 1.5h6v10c0 9.961.01 10 2.464 10 2.43 0 2.467-.132 2.75-9.75l.286-9.75 6.25-.298c4.661-.222 6.25-.667 6.25-1.75 0-1.205-2.552-1.452-15-1.452-12.667 0-15 .233-15 1.5m109-.622c-14.432 3.151-17.654 14.742-5.617 20.208 4.658 2.116 15.758 2.558 21.836.87 4.246-1.179 9.781-5.449 9.781-7.545 0-1.125-2.127-1.411-10.5-1.411-8.526 0-10.5.274-10.5 1.456 0 1.114 1.704 1.525 7.25 1.75l7.25.294-2.673 1.814c-4.298 2.918-12.616 3.315-18.151.867-8.677-3.838-8.688-10.519-.024-14.351 5.909-2.614 14.047-2.168 18.338 1.005 3.204 2.369 8.424 2.981 7.798.915-1.206-3.987-16.658-7.647-24.788-5.872m55.5-.003c-5.593 1.45-7.5 3.008-7.5 6.125 0 3.903 2.18 4.935 12.715 6.022 9.346.964 11.403 1.977 9.658 4.756-1.6 2.548-8.611 3.767-13.405 2.331-2.182-.654-3.968-1.621-3.968-2.149s-1.366-.96-3.035-.96c-2.683 0-2.916.223-2.008 1.92 1.436 2.682 7.42 4.426 14.823 4.319 7.735-.111 12.569-2.544 13.039-6.56.265-2.273-.232-2.95-3-4.091-1.826-.752-6.244-1.693-9.819-2.092-7.352-.82-10-1.894-10-4.056 0-3.312 10.248-4.602 15.364-1.934 3.261 1.701 6.636 1.965 6.636.52 0-2.97-13.212-5.783-19.5-4.151m39-.009c-10.919 2.863-15.506 10.043-10.489 16.421 6.389 8.122 29.083 8.096 36.303-.041 2.415-2.723 2.458-7.735.088-10.355-4.653-5.145-17.692-8.178-25.902-6.025m91.25-.15c-2.746.416-2.75.429-2.75 8.728 0 10.186-.748 11.056-9.5 11.056-8.763 0-9.5-.862-9.5-11.122 0-8.303-.023-8.378-2.538-8.378h-2.537l.287 9.197.288 9.197 3.289 1.918c4.688 2.734 16.685 2.762 21.341.049 3.294-1.918 3.381-2.143 3.87-9.912l.5-7.949 6.25-.298 6.25-.297V420h5v-20h6c4.667 0 6-.333 6-1.5 0-1.272-2.239-1.477-14.75-1.35-8.113.082-15.988.337-17.5.566m73.75.26c-8.188 2.105-12.833 6.088-12.833 11.003 0 6.605 8.549 11.375 20.333 11.347 11.723-.029 20-4.729 20-11.357 0-8.083-15.194-14.157-27.5-10.993m78-.101c-5.593 1.45-7.5 3.008-7.5 6.125 0 3.903 2.18 4.935 12.715 6.022 9.346.964 11.403 1.977 9.658 4.756-1.6 2.548-8.611 3.767-13.405 2.331-2.182-.654-3.968-1.621-3.968-2.149s-1.366-.96-3.035-.96c-2.683 0-2.916.223-2.008 1.92 1.436 2.682 7.42 4.426 14.823 4.319 7.735-.111 12.569-2.544 13.039-6.56.265-2.273-.232-2.95-3-4.091-1.826-.752-6.244-1.693-9.819-2.092-7.352-.82-10-1.894-10-4.056 0-3.312 10.248-4.602 15.364-1.934 3.261 1.701 6.636 1.965 6.636.52 0-2.97-13.212-5.783-19.5-4.151M8 409v11h2.46c2.385 0 2.468-.244 2.75-8.055l.29-8.056 5.332 4.556c2.932 2.505 6.034 4.555 6.892 4.555.858 0 3.971-2.06 6.918-4.577L38 403.845v8.078c0 7.949.04 8.077 2.5 8.077H43v-11c0-10.745-.052-11-2.25-10.986-1.26.008-5.075 2.415-8.671 5.472l-6.42 5.458-6.233-5.472c-4.128-3.624-7.11-5.472-8.83-5.472H8v11m116 0v11h5v-22h-5v11m13.191-5.894c-3.471 2.771-6.139 5.551-5.93 6.178.209.627 3.532 3.333 7.384 6.012 5.268 3.664 7.729 4.788 9.929 4.536 2.789-.319 2.585-.564-4.324-5.23-3.988-2.692-7.25-5.244-7.25-5.669 0-.425 2.925-2.921 6.5-5.546 3.575-2.625 6.5-4.911 6.5-5.08 0-.169-1.463-.292-3.25-.273-2.372.025-4.955 1.395-9.559 5.072M218 399c0 .55 1.575 1 3.5 1h3.5v18h-3.5c-1.925 0-3.5.45-3.5 1 0 .6 4 1 10 1s10-.4 10-1c0-.55-1.575-1-3.5-1H231v-18h3.5c1.925 0 3.5-.45 3.5-1 0-.6-4-1-10-1s-10 .4-10 1m26 10v11h2.46c2.38 0 2.468-.254 2.75-7.883l.29-7.883 9.457 7.883c5.761 4.802 10.353 7.883 11.75 7.883 2.252 0 2.293-.198 2.293-11v-11h-2.46c-2.38 0-2.468.254-2.75 7.883l-.29 7.883-9.457-7.883c-5.761-4.802-10.353-7.883-11.75-7.883-2.252 0-2.293.198-2.293 11m178 0v11h12c14.202 0 16.423-1.787 2.75-2.212l-9.25-.288-.286-9.75c-.283-9.618-.32-9.75-2.75-9.75H422v11m93-10c0 .55 1.818 1 4.039 1h4.039l-.289 8.75-.289 8.75-3.75.31c-2.062.171-3.75.734-3.75 1.25 0 .527 4.616.94 10.5.94s10.5-.413 10.5-.94c0-.516-1.687-1.079-3.75-1.25l-3.75-.31-.289-8.75-.289-8.75h4.039c2.221 0 4.039-.45 4.039-1 0-.603-4.167-1-10.5-1s-10.5.397-10.5 1m71 10v11h2.5c2.444 0 2.5-.167 2.5-7.5 0-4.704.403-7.5 1.08-7.5.594 0 5.058 3.375 9.92 7.5 6.024 5.111 9.662 7.5 11.42 7.5H616v-22h-2.5c-2.444 0-2.5.167-2.5 7.5 0 4.718-.402 7.5-1.083 7.5-.596 0-5.03-3.375-9.853-7.5-6.123-5.236-9.569-7.5-11.417-7.5H586v11m-200.749-7.027c-10.351 4.698-6.832 13.889 5.992 15.647 8.497 1.165 17.757-3.277 17.757-8.518 0-7.438-13.886-11.606-23.749-7.129m166.249-.767c-10.724 3.748-9.665 12.787 1.861 15.891 7.335 1.975 17.743-1.036 19.893-5.755 3.383-7.426-10.714-13.994-21.754-10.136m-488.25 4.75c-1.237 2.167-2.25 4.189-2.25 4.492 0 .304 2.25.552 5 .552s5-.234 5-.52c0-.594-4.901-8.484-5.263-8.472-.13.004-1.25 1.781-2.487 3.948" fill="undefined" fill-rule="evenodd"/></svg>